<svg xmlns="http://www.w3.org/2000/svg" xmlns:xlink="http://www.w3.org/1999/xlink" version="1.1" style="overflow: hidden; display: block;" viewBox="271.78 33.19 582.39 298.37"><defs/><g id="two-0" transform="matrix(1 0 0 1 0 0)" opacity="1"/><path d="M 548.5646644764965 280.1201504367228 Q 548.5646644764965 280.1201504367228 554.6725461540902 275.5408748059484 560.7804278316838 270.961599175174 574.7685804469868 259.4299550042799 588.7567330622899 247.89831083338586 606.157761068911 234.06659930779364 623.5587890755321 220.23488778220144 643.0736548592971 204.3903202309882 662.5885206430621 188.545752679775 676.9409835744777 176.47654234016125 691.2934465058934 164.40733200054748 703.8393087177044 154.2708835098315 716.3851709295154 144.1344350191155 728.0748850694058 133.10960616608477 739.7645992092961 122.08477731305405 748.6898426217791 113.8068364165054 757.6150860342622 105.52889551995675 764.9797855412178 98.79949804559351 772.3444850481735 92.07010057123026 779.043364114582 86.00037549384513 785.7422431809905 79.93065041645998 790.3899067625796 75.91071121519232 795.0375703441688 71.89077201392465 798.5070328188334 69.41775285067814 801.976495293498 66.94473368743164 804.3762879447374 64.83296769359896 806.7760805959767 62.72120169976627 810.3147699928692 59.664265565040544 813.8534593897616 56.60732943031482 814.2226617838642 56.39974165001907 814.5918641779668 56.19215386972331 815.0080239089377 56.113323845890534 815.4241836399086 56.03449382205775 815.8437286740595 56.092675078992336 816.2632737082106 56.150856335926925 816.642277569717 56.339957280669466 817.0212814312233 56.529058225412015 817.3200623157379 56.829279939130174 817.6188432002526 57.129501652848326 817.8061186702964 57.509410842864966 817.9933941403403 57.889320032881606 818.0495564047638 58.3091401067157 818.1057186691874 58.728960180549805 818.02488752408 59.144735865649196 817.9440563789725 59.56051155074858 817.7346948665643 59.928711023129225 817.525333354156 60.29691049550988 817.2093616800623 60.57898317321832 816.8933900059685 60.86105585092675 816.5038904878752 61.02746865014694 816.1143909697819 61.19388144936714 815.6921443100512 61.227210906092026 815.2698976503206 61.26054036281691 814.8591131856888 61.15729687412927 814.448328721057 61.05405338544163 814.0920156934076 60.82504657186069 813.735702665758 60.59603975827975 813.4711671431432 60.26524669363937 813.2066316205285 59.93445362899899 813.0615705419968 59.5365084344879 812.9165094634651 59.13856323997681 812.9061107622313 58.71513088250765 812.8957120609973 58.2916985250385 813.0210644838253 57.88711248421358 813.1464169066534 57.482526443388664 813.3943960217835 57.13914698448269 813.6423751369135 56.79576752557673 813.9870174655314 56.549546568580546 814.3316597941491 56.30332561158436 814.7368811934717 56.18004255569147 815.1421025927943 56.05675949979859 815.5654762753445 56.069322113504555 815.9888499578947 56.08188472721052 816.3860485873497 56.22897770154412 816.7832472168047 56.37607067587771 817.1126839918104 56.64229333759744 817.442120766816 56.90851599931716 817.6693035700662 57.265994765464995 817.8964863733165 57.62347353161284 817.9976291053408 58.03478028100788 818.098771837365 58.44608703040292 818.0632848274211 58.86815783780908 818.0277978174772 59.29022864521523 817.859396564874 59.67887258568119 817.6909953122708 60.06751652614716 817.4073114726095 60.382042476514115 817.1236276329481 60.69656842688107 817.1239343258751 60.696323164260995 817.1242410188022 60.69607790164092 813.3421327658638 63.37637847619767 809.5600245129253 66.05667905075443 806.9350389738172 68.1387674162325 804.3100534347092 70.22085578171058 800.9922175593833 72.58006652144655 797.6743816840575 74.93927726118253 793.0661002739412 78.9321754199598 788.4578188638247 82.92507357873707 781.7707973753012 88.99487340469753 775.0837758867776 95.064673230658 767.7378258802903 101.79187048162427 760.3918758738029 108.51906773259053 751.4893308228997 116.79670937780412 742.5867857719965 125.0743510230177 730.7928916306198 136.2182882350479 718.998997489243 147.36222544707815 706.503235436308 157.4950507040584 694.007473383373 167.62787596103865 679.6524746658918 179.75129793591466 665.2974759484105 191.87471991079067 645.8008381626203 207.77569504693395 626.3042003768301 223.6766701830772 608.9843027338082 237.54082085297676 591.6644050907864 251.40497152287637 577.6700251285747 263.0761974348375 563.6756451663631 274.74742334679866 557.6559542121208 279.4421459765223 551.6362632578785 284.13686860624597 551.3736246804508 284.2914632861225 551.1109861030233 284.4460579659991 550.8189817256828 284.5333046336333 550.5269773483421 284.6205513012675 550.2225784792195 284.6353791762371 549.9181796100967 284.65020705120673 549.6190779257673 284.5917543367219 549.319976241438 284.53330162223716 549.0435555458484 284.40496559281013 548.7671348502588 284.2766295633831 548.5294607272242 284.08586911507405 548.2917866041897 283.89510866676494 548.1066726849081 283.65301080579235 547.9215587656264 283.41091294481976 547.7997638797838 283.1315484102383 547.6779689939412 282.8521838756568 547.6265718660254 282.55178934734226 547.5751747381097 282.2513948190277 547.5971625716099 281.9474292410797 547.6191504051102 281.6434636631316 547.7132452661104 281.3535935292222 547.8073401271107 281.0637233953128 547.9680732178686 280.80479597124435 548.1288063086264 280.54586854717587 548.346835814355 280.33293270700085 548.5648653200836 280.1199968668258 548.5647648982902 280.1200736517743 Z" fill="#f97316"/><path d="M 574.5751393149959 318.615071611339 Q 574.5751393149959 318.615071611339 578.1874509486768 315.8182462794852 581.7997625823577 313.02142094763144 591.8941877632781 304.72817139973847 601.9886129441985 296.43492185184544 611.6539161458761 288.6301405570946 621.3192193475537 280.82535926234374 630.0794224037141 273.9437737968101 638.8396254598746 267.06218833127645 647.8906870683802 259.5293493190543 656.9417486768859 251.99651030683214 663.9792074203059 245.61036750838542 671.0166661637259 239.22422470993868 678.3710898757472 233.59219911034046 685.7255135877687 227.96017351074224 694.4979047631107 220.62623443129047 703.2702959384527 213.29229535183867 711.2957716911629 206.59781382574914 719.3212474438732 199.90333229965958 729.1537438403795 191.70895674413353 738.9862402368858 183.51458118860748 746.7189440640876 176.83437662287338 754.4516478912894 170.1541720571393 760.5958051155714 164.81583917293284 766.7399623398533 159.47750628872635 773.2897355947468 153.98659830869775 779.8395088496403 148.49569032866913 784.408016072334 144.73485942325763 788.9765232950277 140.97402851784614 792.3097865451552 137.97947241004226 795.6430497952828 134.9849163022384 799.2770560250937 132.22148450408935 802.9110622549046 129.45805270594028 805.4070104351165 127.2212291288627 807.9029586153284 124.98440555178513 809.9797240580202 122.9302066773362 812.056489500712 120.87600780288727 814.4167424574098 118.8513169780766 816.7769954141077 116.82662615326592 818.7478547554638 114.9277862318542 820.7187140968198 113.02894631044248 823.8674815969089 110.13045287004148 827.016249096998 107.23195942964048 829.6737193881709 104.45731001394496 832.3311896793438 101.68266059824944 834.8447952336442 99.16488253893601 837.3584007879444 96.64710447962258 839.813159638845 94.46783415040912 842.2679184897455 92.28856382119564 843.6987207151676 90.94104478377218 845.1295229405896 89.59352574634872 845.6923814681643 89.38812581460965 846.255239995739 89.18272588287057 846.8542193311946 89.16780577163915 847.4531986666502 89.15288566040773 848.0255855154493 89.33000750926843 848.5979723642483 89.5071293581291 849.0838376722262 89.85774846275055 849.569702980204 90.20836756737201 849.9181765213594 90.6957740149459 850.2666500625148 91.1831804625198 850.4412465651008 91.75634266932235 850.6158430676866 92.3295048761249 850.5982822317931 92.92841260780375 850.5807213958997 93.5273203394826 850.3728418456806 94.08926779843468 850.1649622954616 94.65121525738675 849.7885290746997 95.11736639632005 849.4120958539378 95.58351753525336 848.9065216202156 95.90506620686963 848.4009473864934 96.22661487848592 847.8191658955402 96.36989485198632 847.237384404587 96.51317482548671 846.6403083320811 96.46318464982352 846.0432322595751 96.41319447416032 845.4933756279206 96.17516813392159 844.943518996266 95.93714179368285 844.498451939945 95.53600070952442 844.0533848836241 95.13485962536599 843.7597060409199 94.61260337469022 843.4660271982158 94.09034712401446 843.3544848214831 93.50165607412936 843.2429424447505 92.91296502424427 843.3252150502776 92.31947528347216 843.4074876558049 91.72598554270004 843.6749612800753 91.18983564356584 843.9424349043458 90.65368574443164 844.3671049882921 90.23101072290451 844.7917750722385 89.80833570137739 845.3291785459696 89.5433897437866 845.8665820197008 89.27844378619584 846.4604525976563 89.19896680424009 847.0543231756117 89.11948982228434 847.6424824515129 89.23380307695427 848.2306417274143 89.34811633162423 848.7515092698156 89.64425119498014 849.2723768122169 89.94038605833607 849.6714176519331 90.38733713201259 850.0704584916492 90.83428820568912 850.3058929474255 91.38525959428868 850.5413274032016 91.93623098288825 850.5885054253695 92.53353583658216 850.6356834475373 93.13084069027607 850.4896654847221 93.71194103320941 850.3436475219067 94.29304137614275 850.01972169336 94.79709584901481 849.6957958648134 95.30115032188687 849.2278772902923 95.67538428833046 848.7599587157712 96.04961825477407 848.7604429227129 96.0493459720889 848.7609271296546 96.04907368940371 846.3935478274476 97.96341062769963 844.0261685252406 99.87774756599553 841.7004362100046 101.97355521899846 839.3747038947686 104.06936287200139 836.460298886492 106.41570482333628 833.5458938782153 108.76204677467118 832.1120288162922 110.26926605677083 830.6781637543692 111.77648533887049 827.4515025369274 114.32247704616917 824.2248413194856 116.86846875346785 822.0589745051898 118.74714350448305 819.8931076908939 120.62581825549825 817.5555139199089 122.45372937994118 815.2179201489238 124.28164050438411 812.9551799352571 126.25671952466334 810.6924397215904 128.23179854494256 808.0134129371629 130.4399712917141 805.3343861527354 132.64814403848564 801.8276898577512 135.30785925176008 798.3209935627671 137.9675744650345 794.9239395498198 141.01914388287432 791.5268855368726 144.07071330071415 786.9735209135448 147.8218500412336 782.420156290217 151.57298678175306 775.8994952153173 157.0430660864402 769.3788341404177 162.51314539112732 763.2331575154159 167.85838786347853 757.0874808904141 173.20363033582976 749.3313487245863 179.9113722087792 741.5752165587585 186.61911408172867 731.7488974810867 194.81880600974344 721.9225784034151 203.0184979377582 713.9060249556235 209.7199741466659 705.8894715078319 216.42145035557354 697.0585830960558 223.82186603114735 688.2276946842798 231.2222817067212 681.0194772607108 236.75954961532892 673.811259837142 242.29681752393665 666.726352087353 248.76294521010135 659.641444337564 255.22907289626608 650.5703706311665 262.8298667137592 641.4992969247688 270.4306605312524 632.7974796455411 277.33640923421245 624.0956623663134 284.2421579371725 614.49507256262 292.0926171233215 604.8944827589265 299.9430763094704 594.8357756156281 308.3430565322378 584.7770684723298 316.7430367550053 581.2555055942919 319.653307523005 577.7339427162541 322.5635782910048 577.4747517436169 322.72388604846736 577.2155607709797 322.88419380592995 576.9255365393259 322.9778126205613 576.6355123076721 323.07143143519266 576.3315110389724 323.0929201770877 576.0275097702726 323.11440891898275 575.727200032547 323.06251866145294 575.4268902948213 323.0106284039232 575.1477261041366 322.88837501117416 574.8685619134518 322.7661216184252 574.6267683056869 322.58061046338764 574.384974697922 322.39509930835015 574.1946047289209 322.157112308071 574.0042347599199 321.9191253077919 573.8763527412254 321.64249427790924 573.748470722531 321.3658632480265 573.6905091630782 321.0666659969945 573.6325476036254 320.76746874596245 573.6478752319731 320.46309463206876 573.6632028603207 320.15872051817513 573.750928833989 319.86685977922025 573.8386548076572 319.57499904026537 573.9936804889348 319.3126146361104 574.1487061702123 319.0502302319555 574.3620214592195 318.832571956498 574.5753367482266 318.61491368104043 574.5752380316112 318.6149926461897 Z" fill="#f97316"/><path d="M 550.6670086189745 282.64485057063115 Q 550.6670086189745 282.64485057063115 549.8372870423664 285.1086590801014 549.0075654657581 287.57246758957166 548.2624266272474 289.3847066028293 547.5172877887366 291.1969456160869 546.8466081458425 292.424635869342 546.1759285029485 293.6523261225971 545.5170031472749 295.5001189507779 544.8580777916013 297.3479117789587 544.1874731990124 299.0959700198348 543.5168686064234 300.84402826071096 542.8910490420628 302.2769835961201 542.2652294777024 303.7099389315292 542.0931292718572 305.23014059858485 541.9210290660118 306.7503422656404 540.9741642325043 308.2985914397748 540.0272993989968 309.8468406139092 539.9693082097433 310.8966027162949 539.91131702049 311.94636481868065 539.4216046532873 313.074945945221 538.9318922860847 314.20352707176136 538.2928422904483 315.63718026010395 537.6537922948121 317.07083344844654 537.030612308901 318.9537914855439 536.4074323229901 320.83674952264124 535.7730881929823 321.86671436749157 535.1387440629745 322.8966792123419 534.4615485182621 324.6220280110099 533.7843529735497 326.3473768096778 531.5989391157107 328.96932232008237 529.4135252578715 331.59126783048697 529.0360820181756 331.55893605606354 528.6586387784798 331.5266042816401 528.311278644203 331.3754431757146 527.9639185099261 331.2242820697891 527.6830101788212 330.97011824005466 527.4021018477163 330.7159544103202 527.2170564962025 330.38539887684266 527.0320111446888 330.0548433433651 526.962203069917 329.6825053577578 526.8923949951452 329.3101673721505 526.9451331209715 328.9350308197942 526.9978712467978 328.55989426743787 527.1676338775267 328.2212360443907 527.3373965082554 327.8825778213435 527.6064094516366 327.61585553295555 527.8754223950177 327.3491332445676 528.2155199248666 327.182272784841 528.5556174547154 327.0154123251144 528.9311912698797 326.9658840282294 529.306765085044 326.91635573134437 529.6784925079344 326.989345223059 530.0502199308248 327.06233471477367 530.379181002138 327.25019997603806 530.7081420734511 327.43806523730245 530.9598944821834 327.7211367256706 531.2116468909156 328.0042082140388 531.3598320934165 328.35284826995496 531.5080172959173 328.70148832587114 531.5371202623678 329.07919424344885 531.5662232288183 329.45690016102657 531.4731968709488 329.8241260309908 531.3801705130792 330.191351900955 531.174754715115 330.5096490777822 530.9693389171508 330.82794625460946 530.6730407673633 331.0639889398636 530.3767426175758 331.3000316251177 530.020584610463 331.4291060873434 529.6644266033502 331.55818054956916 529.2856985762733 331.5667726584991 528.9069705491963 331.575364767429 528.5453254265647 331.4625749269901 528.1836803039331 331.34978508655115 527.8769824255514 331.1274224228109 527.5702845471698 330.9050597590707 527.350645261865 330.5964057016209 527.1310059765602 330.28775164417107 527.0214215754828 329.9251223543033 526.9118371744054 329.5624930644356 526.9237811732758 329.183855924524 526.935725172146 328.8052187846124 527.0679470311293 328.45021720315617 527.2001688901126 328.0952156216999 527.4388249456704 327.80101835798877 527.6774810012281 327.50682109427765 527.9975839013441 327.30423067948277 528.3176868014601 327.1016402646879 528.6857216879935 327.01186796871696 529.0537565745267 326.92209567274597 529.0534063866122 326.9221226553974 529.0530561986977 326.9221496380489 529.179126045985 326.36294635959297 529.3051958932721 325.80374308113704 529.928000054645 324.61526604521055 530.5508042160182 323.42678900928405 530.7651962927939 322.4181471130514 530.9795883695696 321.4095052168188 531.8335563758392 319.9556735414905 532.6875243821088 318.50184186616224 533.0403224760325 317.5403408708172 533.3931205699562 316.57883987547217 534.0114516756896 315.3255064682419 534.629782781423 314.07217306101154 535.166071126655 312.78133729674283 535.702359471887 311.4905015324741 536.1572080075443 309.4246737763038 536.6120565432018 307.35884602013346 537.5645234109891 306.3466299600992 538.5169902787765 305.33441390006504 538.5212457523646 304.20950813840466 538.5255012259528 303.08460237674433 539.1971820138514 301.83638236496137 539.86886280175 300.5881623531784 540.4686225763999 299.46953712389734 541.0683823510499 298.35091189461633 541.4589940038566 297.18345489830415 541.8496056566632 296.01599790199197 542.3089801939313 295.0331295254329 542.7683547311996 294.05026114887386 543.1351898044179 293.0920232477728 543.5020248776362 292.1337853466717 544.1056561268473 291.139727619809 544.7092873760583 290.1456698929463 545.283902336986 288.40880879328887 545.8585172979136 286.67194769363147 546.4555565855633 284.14205808298453 547.052595873213 281.6121684723376 547.1406407818445 281.4034177682215 547.2286856904758 281.19466706410543 547.3641308845322 281.01305384373893 547.4995760785887 280.8314406233725 547.6745494770278 280.6875202556564 547.849522875467 280.54359988794033 548.0538550161505 280.4457370314084 548.2581871568339 280.34787417487644 548.4800022461445 280.3017566233483 548.7018173354553 280.2556390718202 548.9282234699806 280.26394717955753 549.1546296045059 280.27225528729485 549.3724680490695 280.33450618668564 549.5903064936332 280.3967570860764 549.786916467602 280.5093327519231 549.9835264415709 280.6219084177698 550.1474809640202 280.77826594708415 550.3114354864696 280.9346234763985 550.4332055128511 281.12567536223025 550.5549755392328 281.3167272480621 550.6274837898922 281.5313695458302 550.6999920405515 281.74601184359835 550.7190243325534 281.9717695328717 550.7380566245554 282.19752722214497 550.7025068001944 282.4212792554157 550.6669569758336 282.6450312886864 550.666982797404 282.6449409296588 Z" fill="#f97316"/><path d="M 529.0090942382812 327.42398048399025 Q 529.0090942382812 327.42398048399025 530.7925453186035 327.5016538719317 532.5759963989258 327.57932725987314 534.03032408563 327.59912308828245 535.4846517723342 327.6189189166918 537.8868727753759 327.1111830873526 540.2890937784174 326.6034472580133 541.3066361207041 326.5129373509669 542.3241784629907 326.4224274439205 543.9047440540816 326.0381979099197 545.4853096451724 325.65396837591885 547.7376421216916 325.06896103463805 549.9899745982107 324.48395369335725 551.0332393486829 324.2650661796598 552.0765040991552 324.0461786659624 553.238202712085 323.63992709340687 554.3999013250149 323.2336755208514 555.6966339863577 322.9568476301188 556.9933666477007 322.68001973938607 558.0815895529214 322.2650827487465 559.1698124581421 321.8501457581069 560.3206467818441 321.5093609766451 561.471481105546 321.16857619518333 562.7633014003861 321.0874474613638 564.0551216952263 321.0063187275442 565.0807292380649 320.4982987649986 566.1063367809036 319.990278802453 567.2011826487278 319.80222935829306 568.2960285165519 319.6141799141331 569.454489610406 319.57433128518073 570.6129507042601 319.5344826562284 572.50849243277 318.9101914425783 574.4040341612798 318.2859002289282 574.7853520693295 318.2806667199369 575.1666699773792 318.27543321094566 575.529696961348 318.39223280652004 575.8927239453168 318.50903240209436 576.1994509841533 318.7356361537456 576.5061780229897 318.9622399053968 576.7244907147596 319.2749223405095 576.9428034065294 319.58760477562214 577.0498443547755 319.95362796069975 577.1568853030216 320.31965114577736 577.1414472922063 320.7006923567216 577.1260092813911 321.0817335676659 576.9897086753222 321.43789768910574 576.8534080692533 321.7940618105456 576.6105155773661 322.0880583649482 576.3676230854788 322.38205491935076 576.0435696157912 322.5831023898625 575.7195161461035 322.78414986037427 575.3482301824336 322.8711985237612 574.9769442187636 322.95824718714823 574.5972994995176 322.9221830253752 574.2176547802716 322.8861188636022 573.8694002077709 322.73071780392684 573.5211456352704 322.57531674425144 573.2407435551863 322.31684931864356 572.9603414751024 322.05838189303574 572.7771500592387 321.72390970918536 572.593958643375 321.38943752533504 572.5271580813303 321.0139799091834 572.4603575192857 320.63852229303166 572.5169418475398 320.2613897561009 572.573526175794 319.8842572191702 572.7475710002418 319.5449356376304 572.9216158246898 319.20561405609055 573.1948986062683 318.9396304891011 573.4681813878469 318.6736469221116 573.8120893471853 318.5088499193491 574.1559973065237 318.3440529165866 574.5345231894962 318.2976967677424 574.9130490724687 318.2513406188983 575.286561119207 318.3282788249934 575.6600731659454 318.4052170310885 575.9894645665584 318.59739414163494 576.3188559671714 318.78957125218136 576.569639355064 319.07686627297505 576.8204227429567 319.3641612937688 576.9663410312162 319.7164943602942 577.1122593194758 320.0688274268196 577.1380348248027 320.4493091740046 577.1638103301296 320.82979092118956 577.0667443503123 321.1985848096664 576.9696783704949 321.5673786981432 576.7599337392428 321.8858719104363 576.5501891079908 322.20436512272937 576.2497261435635 322.4392113354375 575.9492631791363 322.67405754814564 575.5895404332239 322.800668300805 575.2298176873113 322.9272790534643 575.2301657907258 322.9272171196994 575.2305138941402 322.92715518593445 572.9239728924915 323.5268856070958 570.6174318908427 324.1266160282571 569.5971007888179 324.10345407726913 568.576769686793 324.0802921262811 567.5393909848726 324.36238267376285 566.5020122829523 324.6444732212446 564.7512602520703 324.90566001357695 563.0005082211883 325.16684680590936 561.8595440075175 325.300444777407 560.7185797938466 325.43404274890463 559.6015336752916 325.8800941692135 558.4844875567367 326.32614558952247 557.3394808450771 326.43286578418815 556.1944741334177 326.5395859788539 555.1887318962961 327.01159092533703 554.1829896591744 327.4835958718201 552.5937062037881 327.67745172008796 551.0044227484018 327.8713075683558 548.8359962002039 328.44581753731165 546.6675696520061 329.0203275062675 545.3715322447343 329.42652273338126 544.0754948374625 329.8327179604951 542.3508251977631 329.87206056410093 540.6261555580637 329.91140316770685 539.339030820956 330.0379307873263 538.0519060838484 330.1644584069457 536.8023529324294 330.5467870791113 535.5527997810104 330.9291157512769 534.0643980899681 330.9489115796863 532.5759963989258 330.9687074080956 530.7925453186035 331.04638079603706 529.0090942382812 331.1240541839785 528.7877159306693 331.0971731268172 528.5663376230574 331.07029206965586 528.3578258330853 330.99121122647716 528.1493140431131 330.9121303832984 527.9657874858109 330.7854459364234 527.7822609285087 330.6587614895484 527.6343861760097 330.4918363449817 527.4865114235107 330.32491120041504 527.382882963378 330.12744705540194 527.2792545032455 329.9299829103888 527.225895226451 329.7134563903151 527.1725359496567 329.49692987024144 527.1725470998749 329.2739255066274 527.1725582500931 329.05092114301334 527.2259391792727 328.83439995994996 527.2793201084522 328.6178787768866 527.3829683144811 328.42042499570675 527.4866165205101 328.2229712145269 527.6345079647841 328.05606085827014 527.7823994090581 327.8891505020133 527.9659386338874 327.76248440842744 528.1494778587168 327.6358183148415 528.3579975557307 327.55675832323715 528.5665172527445 327.4776983316328 528.7878982473552 327.4508394124366 529.0092792419659 327.42398049324044 529.0091867401236 327.42398048861537 Z" fill="#f97316"/><path d="M 550.1717959610213 281.1445202862876 Q 550.1717959610213 281.1445202862876 551.2007133886649 282.6030229214912 552.2296308163085 284.06152555669473 553.384568772384 286.20835011181794 554.5395067284594 288.3551746669411 555.6578700989494 289.888004762164 556.7762334694393 291.4208348573869 558.3319898367579 293.54542769925786 559.8877462040764 295.6700205411288 560.9169912093936 296.8857493084456 561.9462362147108 298.10147807576243 562.8085121400852 299.390581362743 563.6707880654595 300.6796846497236 564.3636777499785 301.48650762739453 565.0565674344974 302.2933306050654 566.3597767671322 303.59209447413207 567.6629860997668 304.8908583431988 568.402023803678 306.00014419164995 569.1410615075893 307.10943004010113 569.9140662011024 308.5239662050258 570.6870708946155 309.93850236995036 571.3608495195406 311.1727579479543 572.0346281444657 312.40701352595835 572.4781429456234 313.4720488894185 572.921657746781 314.5370842528786 573.7359319430678 315.33308646617684 574.5502061393547 316.1290886794751 575.5378013035344 317.75825596799905 576.525396467714 319.38742325652294 576.6729388647277 319.6772737338976 576.8204812617415 319.9671242112723 576.8677472523727 320.2889129374274 576.915013243004 320.6107016635825 576.8570540655567 320.9307372739457 576.7990948881093 321.25077288430884 576.6419788837618 321.53554756599385 576.4848628794143 321.8203222476788 576.2450401352964 322.0400200163399 576.0052173911787 322.25971778500104 575.7077974119068 322.39133622626497 575.4103774326347 322.5229546675289 575.0865001685496 322.5527132958514 574.7626229044645 322.5824719241739 574.4461983906112 322.50725500331407 574.129773876758 322.4320380824542 573.8539318432651 322.2597208438814 573.5780898097721 322.08740360530857 573.3717109903614 321.8360277093887 573.1653321709506 321.58465181346884 573.0500244824931 321.2805363828615 572.9347167940356 320.97642095225416 572.9225529819511 320.65140695282264 572.9103891698666 320.3263929533912 573.0026427884912 320.01450943667135 573.0948964071159 319.70262591995146 573.2819084782273 319.4365271724731 573.4689205493385 319.1704284249947 573.7311108597246 318.97797505586203 573.9933011701107 318.78552168672934 574.3032183250627 318.68686361449335 574.6131354800148 318.58820554225736 574.9383310715991 318.5936722931243 575.2635266631834 318.5991390439912 575.5699526271177 318.7081582477023 575.876378591052 318.8171774514134 576.1319520480239 319.0183347685618 576.3875255049958 319.2194920857101 576.5654878465955 319.49172629208994 576.7434501881951 319.76396049846977 576.8251687102795 320.07876860081024 576.9068872323639 320.39357670315076 576.8838059840994 320.7179982100356 576.8607247358347 321.04241971692045 576.7352603300071 321.3424876109399 576.6097959241796 321.64255550495926 576.3950845171987 321.8868525983991 576.1803731102177 322.13114969183897 575.8988950430726 322.294098014528 575.6174169759275 322.45704633721704 575.2986430765513 322.52158515675546 574.9798691771753 322.58612397629395 574.6571751569809 322.54549606123953 574.3344811367865 322.5048681461852 574.0416531448711 322.36332724996885 573.7488251529558 322.2217863537526 573.5165223573721 321.9941518455714 573.2842195617884 321.7665173373902 573.2843979938458 321.76676042566 573.2845764259032 321.76700351392975 572.4088311138661 320.25096054778874 571.533085801829 318.73491758164766 570.8983352573973 317.9477009010832 570.2635847129656 317.1604842205187 569.6536549782093 315.8274906787444 569.043725243453 314.4944971369702 568.4351011319061 313.1649148802695 567.8264770203593 311.8353326235689 567.1278099894606 310.31185579031114 566.4291429585619 308.78837895705334 565.2960358938167 307.19341455207075 564.1629288290713 305.59845014708816 563.515307074043 304.80444700587236 562.8676853190146 304.0104438646565 562.1719175141814 303.0466530099196 561.4761497093481 302.0828621551827 560.7495384412559 300.88439872999504 560.0229271731637 299.68593530480734 558.992156269451 298.405650312335 557.9613853657384 297.1253653198627 556.3485876697605 295.05556809102103 554.7357899737827 292.9857708621794 553.4344411755792 291.36365791130936 552.1330923773755 289.7415449604393 550.951674323014 287.8220584994797 549.7702562686524 285.90257203852013 548.6590323999093 284.50753539760063 547.5478085311662 283.11249875668113 547.4491261219209 282.9412061583274 547.3504437126757 282.7699135599737 547.29562329787 282.5799817451934 547.2408028830642 282.39004993041306 547.2330306277825 282.19251774520507 547.2252583725005 281.9949855599971 547.2649860005846 281.80133358424666 547.3047136286687 281.60768160849625 547.3896321685079 281.4291649041328 547.4745507083471 281.2506481997694 547.5997246904162 281.097642166038 547.7248986724852 280.94463613230664 547.8830529790649 280.82603348707687 548.0412072856446 280.70743084184704 548.2231499810057 280.630124776432 548.4050926763668 280.552818711017 548.6002492425064 280.52130225757094 548.795405808646 280.4897858041249 548.9924337367706 280.5058907004028 549.1894616648954 280.52199559668077 549.3769096825652 280.5847858253544 549.564357700235 280.647576054028 549.7313313198557 280.7534022440566 549.8983049394765 280.85922843408514 550.0350996464306 281.001939962332 550.1718943533847 281.14465149057884 550.171845157203 281.1445858884332 Z" fill="#f97316"/><path d="M 613.0254424700835 229.9239043156733 Q 613.0254424700835 229.9239043156733 615.1197367098732 231.42045030352742 617.2140309496629 232.91699629138154 619.219990266866 234.68888283672794 621.2259495840691 236.46076938207437 623.0793304209757 237.89652587397023 624.9327112578823 239.33228236586606 627.154972288897 241.0356745009766 629.3772333199119 242.7390666360871 630.7544041125944 244.24543396349912 632.131574905277 245.75180129091115 633.0732369401526 246.67416982272613 634.014898975028 247.59653835454114 634.7792901068253 248.31299355826812 635.5436812386225 249.0294487619951 636.6872910337365 249.94515708048314 637.8309008288505 250.86086539897119 638.9136363309556 251.91802246746698 639.9963718330607 252.97517953596275 640.9101899268205 254.27183153830129 641.8240080205803 255.56848354063982 642.7519229160785 256.10363764388353 643.6798378115767 256.63879174712724 644.9323768528161 258.402422275447 646.1849158940554 260.1660528037668 646.2606847109853 260.47914348723805 646.3364535279151 260.79223417070926 646.3082824336551 261.1131283575429 646.2801113393951 261.43402254437655 646.150949854951 261.7291225285033 646.0217883705068 262.02422251263005 645.8051597373949 262.262631247813 645.5885311042831 262.5010399829959 645.3071163975749 262.65779601172756 645.0257016908665 262.81455204045926 644.7089651046404 262.8732429651519 644.3922285184143 262.9319338898445 644.0733324568587 262.8864147551899 643.754436395303 262.84089562053526 643.466769360243 262.69593229194766 643.179102325183 262.55096896336 642.9527831311261 262.321739139609 642.7264639370693 262.0925093158581 642.5851882633758 261.8030134200013 642.4439125896823 261.5135175241446 642.4024720366812 261.1940658528978 642.36103148368 260.87461418165094 642.4237648882095 260.55865340932064 642.486498292739 260.24269263699034 642.646837450785 259.9633039398451 642.807176608831 259.6839152426998 643.0483339682206 259.4703506910821 643.2894913276102 259.25678613946445 643.586217649156 259.13140599830433 643.8829439707017 259.00602585714415 644.2041719302097 258.98195746031814 644.5253998897177 258.95788906349213 644.8374968350315 259.03765237850143 645.1495937803452 259.1174156935107 645.4198830789047 259.2926594802183 645.6901723774643 259.4679032669259 645.8903546683609 259.72027945460366 646.0905369592577 259.97265564228144 646.1996531037918 260.27574037745865 646.3087692483258 260.5788251126359 646.3153947573605 260.900885343533 646.3220202663954 261.22294557443 646.2254614473859 261.5302615098563 646.1289026283765 261.8375774452826 645.9392692151623 262.0979730256755 645.7496358019481 262.3583686060684 645.4867824629509 262.54458034542296 645.2239291239537 262.73079208477753 644.9153766731531 262.82332356482823 644.6068242223524 262.9158550448789 644.2848781827972 262.90501819523854 643.962932143242 262.89418134559816 643.6613003502591 262.78111078728466 643.3596685572761 262.66804022897117 643.1099319392138 262.46457447928776 642.8601953211515 262.2611087296043 642.6885013678451 261.98855070625245 642.5168074145387 261.71599268290066 642.5169236600304 261.7162677910387 642.5170399055223 261.7165428991767 642.1119987654301 260.8762367539199 641.706957625338 260.03593060866314 640.9350737936613 259.20370651721464 640.1631899619848 258.37148242576615 639.3734712018872 257.40765861117825 638.5837524417897 256.4438347965903 637.6107374308485 255.36758254354388 636.6377224199074 254.29133029049746 635.9279379733345 253.3358889723748 635.2181535267615 252.3804476542521 634.4432506729454 251.65518961799165 633.6683478191293 250.9299315817312 632.9435409778155 250.11476916296976 632.2187341365018 249.29960674420832 631.3349431337724 248.29673194295077 630.4511521310429 247.29385714169325 629.2116814990761 245.94878234923792 627.9722108671093 244.60370755678258 625.7162107392525 242.95494979071162 623.4602106113956 241.3061920246407 621.4907577185583 239.89018420832235 619.5213048257209 238.47417639200398 617.5679878291423 236.8931549459411 615.6146708325637 235.31213349987823 613.4286473843651 233.9551314378056 611.2426239361665 232.59812937573295 611.0955751433135 232.4720336856604 610.9485263504603 232.3459379955878 610.8359284145959 232.18831447141218 610.7233304787316 232.03069094723654 610.6517275971789 231.85070067558885 610.5801247156263 231.67071040394117 610.5536784512254 231.4788144278664 610.5272321868246 231.28691845179165 610.547479597705 231.09426977443547 610.5677270085853 230.90162109707927 610.6334913142753 230.71941646862115 610.6992556199654 230.53721184016305 610.8067145959284 230.37604100216987 610.9141735718914 230.21487016417666 611.0570816973955 230.0841003733251 611.1999898228995 229.95333058247357 611.3700412709759 229.86056218515216 611.5400927190523 229.76779378783075 611.7274040915488 229.71841848765052 611.9147154640455 229.6690431874703 612.108400215192 229.66593067919757 612.3020849663386 229.66281817092485 612.4908861292981 229.70614935368673 612.6796872922578 229.74948053644857 612.8526317345685 229.836736999867 613.0255761768792 229.9239934632854 613.0255093234814 229.92394888947933 Z" fill="#f97316"/><path d="M 743.9985281745458 84.86187744140625 Q 743.9985281745458 84.86187744140625 743.9168381555262 87.00203409194947 743.8351481365066 89.14219074249267 743.7759228727175 93.97537821054459 743.7166976089283 98.8085656785965 743.6737592926811 102.64613459354638 743.6308209764339 106.48370350849628 743.5996906971548 109.18474752589613 743.5685604178755 111.88579154329598 743.545990965398 114.10381467268797 743.5234215129207 116.32183780207998 743.5724593107959 117.63662839254664 743.6214971086711 118.9514189830133 743.2759839707386 120.08626899836969 742.9304708328061 121.2211190137261 742.7563767303127 122.60613800187559 742.5822826278193 123.99115699002508 742.5393099662142 124.21385436539938 742.4963373046091 124.43655174077371 742.3845044716293 124.63386922127594 742.2726716386495 124.83118670177817 742.1036875614291 124.98246509511296 741.9347034842085 125.13374348844776 741.7262608402397 125.22314390689937 741.5178181962708 125.31254432535096 741.2917409854008 125.33070652150806 741.0656637745307 125.34886871766516 740.8456223404161 125.29389110479575 740.6255809063015 125.23891349192634 740.4346136451794 125.11655224061053 740.2436463840573 124.99419098929474 740.1017476185777 124.81725735484554 739.9598488530982 124.64032372039632 739.8818754214644 124.42734270104651 739.8039019898307 124.21436168169669 739.7980177309178 123.98763244639369 739.7921334720049 123.76090321109069 739.8589544692744 123.54416437062146 739.9257754665439 123.32742553015223 740.0583055439425 123.14336969832738 740.1908356213412 122.95931386650254 740.3751988447809 122.82721173750016 740.5595620682207 122.69510960849779 740.77645555954 122.628792310096 740.9933490508594 122.56247501169423 741.2200640042631 122.56888598254177 741.4467789576668 122.57529695338931 741.6595782576863 122.65376496314612 741.8723775577059 122.73223297290292 742.048981061456 122.8745424002339 742.225584565206 123.01685182756488 742.3475018392248 123.20810283786244 742.4694191132437 123.39935384815999 742.5238853867587 123.61952241016061 742.5783516602737 123.83969097216124 742.5596643000702 124.06572537930461 742.5409769398665 124.29175978644798 742.4510925174906 124.4999941766389 742.3612080951146 124.7082285668298 742.2095375333163 124.87686074444673 742.057866971518 125.04549292206366 741.8602902181549 125.15686705359553 741.6627134647916 125.26824118512741 741.4399168580958 125.31069636960294 741.2171202513999 125.35315155407847 740.9924306549051 125.32224272247598 740.7677410584103 125.29133389087347 740.5646835321818 125.19029720602089 740.3616260059533 125.0892605211683 740.2014607265893 124.92867455064076 740.0412954472253 124.76808858011323 739.9407917617546 124.56476671741558 739.8402880762839 124.36144485471792 739.8099687471058 124.13667495254634 739.7796494179277 123.91190505037476 739.7796434740321 123.91211524786706 739.7796375301366 123.91232544535939 740.4834891560453 121.400995512267 741.1873407819539 118.88966557917462 741.2363785798291 117.6057516906273 741.2854163777043 116.32183780207998 741.262846925227 114.10381467268797 741.2402774727495 111.88579154329598 741.2091471934702 109.18474752589613 741.1780169141911 106.48370350849628 741.1350785979439 102.64613459354638 741.0921402816967 98.8085656785965 741.0329150179075 93.97537821054459 740.9736897541184 89.14219074249267 740.8919997350988 87.00203409194947 740.8103097160792 84.86187744140625 740.8334721419047 84.67112383381333 740.8566345677302 84.4803702262204 740.9247756439295 84.30070322726331 740.9929167201286 84.12103622830621 741.1020760841512 83.96289809240594 741.2112354481739 83.80475995650565 741.355068752654 83.6773416795508 741.4989020571343 83.54992340259598 741.6690497036577 83.46063054082991 741.839197350181 83.37133767906384 742.0257703495374 83.3253599378078 742.2123433488938 83.27938219655177 742.4044980695944 83.27939180428781 742.596652790295 83.27940141202386 742.7832211909445 83.32539781034991 742.9697895915938 83.37139420867597 743.1399283079803 83.46070408476018 743.3100670243668 83.55001396084441 743.4538875863002 83.67744662049259 743.5977081482336 83.80487928014075 743.7068516978968 83.96302833118672 743.8159952475601 84.12117738223269 743.8841183567188 84.30085119439906 743.9522414658774 84.48052500656544 743.9753848162263 84.67128092944718 743.9985281665752 84.86203685232891 743.9985281705605 84.86195714686758 Z" fill="#f97316"/><path d="M 740.3292846209474 81.37916324606702 Q 740.3292846209474 81.37916324606702 742.4961414504029 79.62777116886517 744.6629982798584 77.87637909166332 746.287532924634 76.44375325975219 747.9120675694097 75.01112742784106 749.3625344450913 73.97213570514862 750.8130013207729 72.93314398245617 753.1486946750465 70.80128050251594 755.48438802932 68.66941702257569 758.344453530724 66.63515132853811 761.2045190321279 64.60088563450054 763.8220780511896 62.69329046792964 766.4396370702513 60.78569530135875 769.329488862325 58.5579888817848 772.2193406543987 56.33028246221085 774.1477161101438 54.68502974803422 776.0760915658891 53.03977703385758 777.6510489992326 51.93258338420263 779.226006432576 50.82538973454767 780.5401539403997 49.67840796057301 781.8543014482233 48.53142618659836 782.7355208678995 47.65768284682404 783.6167402875757 46.783939507049716 784.5991322480593 45.590797243004204 785.581524208543 44.3976549789587 786.3111340381793 43.69790752806853 787.0407438678156 42.998160077178355 788.1392025667219 42.29514563831036 789.2376612656283 41.59213119944236 789.9611375412501 40.80792467499249 790.6846138168719 40.02371815054262 791.4478517763564 39.35028593160435 792.2110897358408 38.67685371266608 793.1475939333243 38.15388653174894 794.0840981308077 37.630919350831796 795.8162982058535 35.42270530366866 797.5484982808994 33.21449125650552 797.8910912821751 33.196328789084575 798.2336842834509 33.178166321663625 798.5641419775825 33.27034848986968 798.8945996717141 33.36253065807574 799.1783230508936 33.55540596456391 799.4620464300731 33.74828127105208 799.6693295816046 34.0216556203189 799.8766127331363 34.29502996958573 799.9857530563372 34.62028099509915 800.0948933795382 34.945532020612575 800.0944638537591 35.28860585414341 800.0940343279799 35.63167968767426 799.9840799246832 35.956656408289135 799.8741255213865 36.28163312890402 799.6661584956225 36.55448758816904 799.4581914698584 36.82734204743405 799.1739860241225 37.019506311437574 798.8897805783866 37.2116705754411 798.5590930978705 37.30302499501552 798.2284056173543 37.39437941458995 797.8858591685607 37.3753591578906 797.5433127197673 37.35633890119126 797.2247720063087 37.22893539411543 796.9062312928501 37.101531887039606 796.645047611512 36.87908431040939 796.383863930174 36.65663673377917 796.2073832813385 36.36243540758821 796.0309026325028 36.06823408139725 795.9576025866892 35.733081962159346 795.8843025408755 35.39792984292144 795.9218576322298 35.05691744599237 795.9594127235841 34.715905049063295 796.103890924128 34.40473646242006 796.2483691246719 34.09356787577682 796.4846435286697 33.84482253258149 796.7209179326677 33.596077189386165 797.0242505476508 33.43579879273369 797.3275831626338 33.27552039608123 797.6662149837412 33.22049013641052 798.0048468048486 33.1654598767398 798.3433229910204 33.22143943676495 798.681799177192 33.2774189967901 798.9846811823868 33.438547301799304 799.2875631875816 33.5996756068085 799.5231391859024 33.84908248073356 799.7587151842233 34.09848935465861 799.9023203064601 34.410061831962544 800.0459254286968 34.72163430926648 800.0825241806432 35.06275066932842 800.1191229325896 35.40386702939037 800.0448834152556 35.73881229926586 799.9706438979217 36.07375756914135 799.7933390083697 36.367462890657464 799.6160341188177 36.661168212173585 799.3542277257875 36.882882560636915 799.0924213327575 37.10459690910024 798.7735246347097 37.23110673369976 798.454627936662 37.357616558299284 798.4549386710619 37.357548598574596 798.4552494054619 37.3574806388499 797.2909739553138 38.82697418243069 796.1266985051658 40.29646772601148 795.204364119769 41.087007089465516 794.2820297343723 41.87754645291955 793.3902180825163 42.56014265286552 792.4984064306603 43.24273885281149 791.506231999147 43.73169426170553 790.5140575676336 44.220649670599556 789.6813509549074 44.83666182021817 788.8486443421813 45.45267396983678 787.9244388687546 46.139584619164445 787.0002333953278 46.82649526849211 786.1331499032183 47.68224771686974 785.2660664111087 48.53800016524736 784.271380740235 49.36881219439655 783.2766950693614 50.19962422354573 781.8555730167 51.3848032882577 780.4344509640384 52.569982352969674 778.930564406259 53.59312094007966 777.4266778484796 54.61625952718965 775.4677988880717 56.30499557603245 773.5089199276639 57.993731624875245 770.6094577040188 60.25359445590595 767.7099954803738 62.51345728693665 765.098350134555 64.4506333698497 762.4867047887361 66.38780945276275 759.7570113697869 68.36440163858573 757.0273179508378 70.34099382440871 754.6034309180675 72.61077513474237 752.1795438852971 74.88055644507604 750.8237090518035 75.8056030946618 749.4678742183099 76.73064974424757 747.8465129814329 78.24073815527163 746.2251517445557 79.75082656629567 744.1116908860229 81.56636297114949 741.9982300274901 83.38189937600329 741.8662798579805 83.46720379715855 741.7343296884711 83.5525082183138 741.5857986726523 83.60375496301099 741.4372676568337 83.65500170770817 741.2807884243236 83.66921231273767 741.1243091918137 83.68342291776717 740.9689763229583 83.65977146209698 740.8136434541027 83.63612000642681 740.6684849025378 83.57598111377176 740.5233263509728 83.51584222111671 740.3967787385357 83.42271116674351 740.2702311260985 83.32958011237031 740.1696494059697 83.20886967753488 740.069067685841 83.08815924269945 740.0002976723205 82.94688512354597 739.9315276588 82.80561100439249 739.8985662683044 82.65198405936391 739.865604877809 82.49835711433533 739.8703678279029 82.34130614869483 739.8751307779968 82.18425518305433 739.9173412457969 82.03290800630396 739.959551713597 81.88156082955359 740.0367564247314 81.74471374671708 740.1139611358658 81.60786666388057 740.221672948896 81.49347323384212 740.3293847619261 81.37907980380368 740.3293346914368 81.37912152493536 Z" fill="#f97316"/><path d="M 799.6448794502428 33.82479619475167 Q 799.6448794502428 33.82479619475167 800.6755539764029 34.93051676988361 801.7062285025628 36.03623734501556 802.7302864385883 36.766720968604766 803.754344374614 37.497204592193974 804.6696929262546 38.2393992154379 805.5850414778953 38.98159383868183 806.3477892244638 39.65734756790169 807.1105369710323 40.333101297121544 808.3048366239585 41.88291640497594 809.4991362768848 43.43273151283033 810.8653677079706 44.80370091458468 812.2315991390564 46.17467031633903 813.0757613076383 47.66561080995807 813.9199234762203 49.15655130357711 814.9152220626428 49.71201246888042 815.9105206490652 50.26747363418372 816.7358496657066 51.33852496983421 817.5611786823479 52.40957630548469 817.7634615334695 53.45749133570435 817.9657443845911 54.505406365923996 815.5884500447817 55.669103902489184 813.2111557049722 56.83280143905437 813.2737945193584 56.4507719420907 813.3364333337446 56.06874244512702 813.5177793460143 55.72671352609838 813.6991253582839 55.38468460706973 813.9801915930818 55.11846678408527 814.2612578278796 54.852248961100806 814.612616576228 54.68971531050169 814.9639753245765 54.527181659902574 815.3488392327736 54.48534949781124 815.7337031409708 54.44351733571992 816.1117768562342 54.526766500549954 816.4898505714978 54.61001566538 816.8215496760376 54.809629947598054 817.1532487805775 55.00924422981611 817.4038442905885 55.3043239613809 817.6544398005996 55.59940369294569 817.7976943000327 55.9590539480689 817.9409487994659 56.318704203192105 817.961863504415 56.70526950522388 817.982778209364 57.09183480725566 817.8791633446999 57.464841667029944 817.7755484800359 57.83784852680424 817.5582525494408 58.15824302763842 817.3409566188456 58.47863752847261 817.0327305636131 58.71287428155342 816.7245045083805 58.947111034634226 816.3576196778574 59.0706653900816 815.9907348473342 59.194219745528976 815.6036041801244 59.19415552971239 815.2164735129145 59.194091313895804 814.8496296920673 59.07041525022821 814.4827858712202 58.94673918656062 814.174637541616 58.71240019155532 813.8664892120116 58.47806119655002 813.6492995851029 58.15759462484357 813.4321099581942 57.83712805313711 813.328618845251 57.46408683938212 813.2251277323078 57.091045625627125 813.2461706801741 56.70448728337706 813.2672136280406 56.31792894112699 813.4105874345203 55.95832623085693 813.5539612409998 55.59872352058687 813.8046546307072 55.303726940987985 814.0553480204146 55.0087303613891 814.3871133292707 54.80922613221692 814.718878638127 54.60972190304474 815.0969799507172 54.526598169757605 815.4750812633074 54.443474436470474 815.8599312723943 54.48543427588608 816.2447812814813 54.52739411530168 816.5960860895232 54.69004432115689 816.9473908975649 54.85269452701209 817.2283687984241 55.11900557981838 817.5093466992832 55.38531663262466 817.6905792325689 55.727405694853914 817.8718117658545 56.06949475708316 817.9343238374909 56.45154501361724 817.9968359091273 56.83359527015132 817.9968359686646 56.833236344133326 817.996836028202 56.832877418115324 815.8754985740211 55.46163592133449 813.7541611198401 54.090394424553665 812.9405213454384 53.127821270756044 812.1268815710367 52.16524811695843 810.9654232392311 50.969213583787806 809.8039649074254 49.77317905061718 809.3991539694467 48.78267435450573 808.994343031468 47.79216965839428 808.0662488204416 47.23190806855768 807.1381546094152 46.67164647872108 806.4899549872741 45.4873808279124 805.8417553651332 44.30311517710373 804.5458051276323 43.06205645755867 803.2498548901314 41.82099773801362 802.4588717052075 41.160051005683414 801.6678885202834 40.499104273353204 800.3555904458719 39.606636501430785 799.0432923714606 38.714168729508366 797.9338256012338 37.679732654097094 796.8243588310072 36.64529657868583 796.6760971826985 36.45605166896492 796.5278355343899 36.266806759244005 796.4291730577748 36.047578868858984 796.3305105811598 35.82835097847396 796.2871815440149 35.591881642714384 796.24385250687 35.35541230695481 796.2583751948699 35.11544513472549 796.2728978828699 34.87547796249617 796.3444282367057 34.64595985712188 796.4159585905414 34.41644175174759 796.5403392626874 34.21071231629655 796.6647199348333 34.00498288084552 796.8347219147803 33.83499911977229 797.0047238947272 33.66501535869907 797.2104666594132 33.540656736183905 797.4162094240991 33.41629811366873 797.6457351943736 33.34479235869515 797.8752609646482 33.27328660372157 798.1152296919588 33.258789634128334 798.3551984192695 33.2442926645351 798.5916631099101 33.28764704487611 798.8281278005506 33.33100142521711 799.0473451155908 33.42968739686994 799.266562430631 33.52837336852276 799.4557914494208 33.676655298178204 799.6450204682104 33.824937227833644 799.6449499592266 33.82486671129266 Z" fill="#f97316"/><path d="M 816.8992349848215 55.03120948095225 Q 816.8992349848215 55.03120948095225 818.245146081588 56.538849000528174 819.5910571783544 58.0464885201041 820.5564469061194 59.00724252880634 821.5218366338844 59.967996537508576 822.304008705222 60.71782099139911 823.0861807765598 61.467645445289634 824.1162111513463 62.5154802443932 825.1462415261327 63.56331504349677 825.959838190324 64.35094781902015 826.7734348545152 65.13858059454353 827.5780669432476 66.31463849614782 828.3826990319799 67.49069639775212 829.8245467822146 68.74924671994876 831.2663945324495 70.0077970421454 832.1134148622924 70.69245934615714 832.9604351921354 71.37712165016887 833.7069095026118 72.04574242720895 834.4533838130883 72.71436320424901 835.143308013844 73.51216034476457 835.8332322145997 74.30995748528011 836.9173659264081 75.33935656636422 838.0014996382165 76.36875564744834 838.6391505255363 77.29925669614775 839.2768014128559 78.22975774484718 840.2557893493642 78.77686778030085 841.2347772858725 79.3239778157545 842.0019196346277 80.40836116437232 842.7690619833829 81.49274451299014 843.8807828580861 82.67042720973839 844.9925037327893 83.84810990648666 846.1621322808949 84.86668241438551 847.3317608290004 85.88525492228436 847.5469813574598 86.94509732696014 847.7622018859191 88.00493973163593 846.1224979897509 90.06596354778728 844.4827940935825 92.12698736393862 844.1954348531983 91.86193193844053 843.9080756128143 91.59687651294246 843.7203948679401 91.25393971173334 843.5327141230657 90.91100291052422 843.4643620972325 90.52609030721717 843.3960100713994 90.14117770391015 843.4541432397552 89.7545897496785 843.5122764081111 89.36800179544686 843.6908082125834 89.02021435114796 843.8693400170557 88.67242690684905 844.1495781305885 88.39985340970797 844.4298162441212 88.12727991256689 844.7824196622518 87.9584588796867 845.1350230803823 87.78963784680653 845.5230741321542 87.74224488489423 845.9111251839261 87.69485192298193 846.2939948217833 87.77384908766025 846.6768644596405 87.85284625233858 847.0144661314315 88.04996251961248 847.3520678032226 88.24707878688638 847.6090545247928 88.54167603153864 847.8660412463629 88.83627327619091 848.0155064401259 89.19750708894031 848.164971633889 89.55874090168973 848.1912662546029 89.94879000698496 848.2175608753167 90.3388391122802 848.1179318692517 90.71686526583386 848.0183028631867 91.09489141938754 847.8031814135771 91.42131518313337 847.5880599639676 91.74773894687921 847.2799693433742 91.98838366658552 846.971878722781 92.22902838629182 846.603076100508 92.3586984962813 846.2342734782351 92.48836860627078 845.8433725861889 92.49348761179797 845.4524716941427 92.49860661732515 845.0803999589083 92.37863855716004 844.7083282236739 92.25867049699494 844.3940416541477 92.02617605870533 844.0797550846216 91.79368162041573 843.8561595675967 91.4730030330631 843.6325640505719 91.15232444571048 843.5230700957043 90.77703684204158 843.4135761408367 90.4017492383727 843.4296477941044 90.01114532955799 843.4457194473722 89.62054142074327 843.5856740024358 89.25551753914503 843.7256285574995 88.8904936575468 843.9748127354994 88.58926789992535 844.2239969134993 88.2880421423039 844.5563210652206 88.08215292499804 844.8886452169419 87.8762637076922 845.2693149159743 87.78726768610338 845.6499846150068 87.69827166451455 846.0391436433747 87.73548674559575 846.4283026717425 87.77270182667695 846.7852059764476 87.93223158161516 847.1421092811528 88.09176133655336 847.1418066391984 88.0915618879128 847.1415039972442 88.09136243927223 845.0833305090605 87.79779080032654 843.0251570208768 87.50421916138085 842.3973971920623 86.57359282247461 841.7696373632476 85.64296648356836 840.5426961815103 84.89576535114469 839.3157549997732 84.14856421872103 838.7775721876126 83.24678694496981 838.2393893754519 82.3450096712186 837.1894317035851 81.69050588807025 836.1394740317184 81.03600210492189 835.6836137075983 79.98121229658602 835.2277533834782 78.92642248825014 834.4411946757473 78.09191192545313 833.6546359680164 77.25740136265614 832.7987780518745 76.27016083930329 831.9429201357327 75.28292031595045 830.6065047352834 74.06028229714627 829.2700893348341 72.83764427834208 828.1170374414669 71.9798114955158 826.9639855480998 71.12197871268954 826.2725786142809 70.23339295302023 825.5811716804619 69.3448071933509 824.9938886445225 68.41559154838635 824.406605608583 67.48637590342179 823.6237326320027 66.67752889422201 822.8408596554222 65.86868188502223 821.7930330686961 64.8386461766143 820.74520648197 63.80861046820638 819.9953877362377 63.02643803739328 819.2455689905054 62.244265606580164 818.284816636056 61.27887873946606 817.3240642816066 60.31349187235195 815.8164185546425 58.96758772890298 814.3087728276785 57.621683585454 814.1726024557618 57.44787439598808 814.0364320838449 57.27406520652217 813.9458153859134 57.07271819614776 813.8551986879818 56.871371185773356 813.8154023107766 56.65418865219367 813.7756059335715 56.437006118613986 813.7889428444058 56.21661072088495 813.8022797552402 55.996215323155916 813.8679748122297 55.78541645214878 813.9336698692193 55.574617581141645 814.0479048725651 55.38566687714368 814.162139875911 55.19671617314571 814.3182754818513 55.04059545995109 814.4744110877915 54.88447474675647 814.6633726875731 54.770257767551364 814.8523342873547 54.65604078834626 815.0631394239199 54.59036583932854 815.273944560485 54.524690890310815 815.4943412293919 54.5113750026031 815.714737898299 54.49805911489539 815.9319166347956 54.537876208516906 816.1490953712922 54.57769330213843 816.3504337370093 54.668329205737095 816.5517721027263 54.75896510933577 816.7255683023884 54.895152059935924 816.8993645020504 55.03133901053607 816.8992997434359 55.03127424574416 Z" fill="#f97316"/><path d="M 816.8446655273438 51.74479065285258 Q 816.8446655273438 51.74479065285258 817.9147537231445 51.757327146223986 818.9848419189453 51.76986363959539 819.9896042985916 51.74210977440919 820.994366678238 51.71435590922298 822.3443900289783 51.67605858548606 823.6944133797186 51.63776126174915 824.911261422594 51.60373291138595 826.1281094654693 51.56970456102274 827.3740433220582 51.537789753384324 828.6199771786473 51.50587494574591 829.7764283376321 51.48995179614319 830.9328794966169 51.47402864654047 832.7258599412185 51.99632776506311 834.5188403858201 52.518626883585746 836.4040112897358 53.13073428079458 838.2891821936514 53.74284167800341 839.5531132390679 54.35726315868061 840.8170442844843 54.97168463935781 842.2394871401445 55.66722136107619 843.6619299958049 56.36275808279457 844.77720610801 56.92682240374116 845.8924822202151 57.490886724687755 846.9722893179467 58.23680060756079 848.0520964156781 58.98271449043382 848.7866922118523 59.8311895099672 849.5212880080264 60.679664529500585 850.4396409715393 61.718371817457765 851.3579939350524 62.757079105414945 851.448919044569 63.78957716324505 851.5398441540858 64.82207522107515 850.4494163649797 63.75360985572739 849.3589885758737 62.685144490379635 850.8745619051415 63.725007152397154 852.3901352344092 64.76486981441467 852.5957437469679 66.32584720750302 852.8013522595264 67.88682460059135 853.3818567283881 69.04804534805142 853.9623611972497 70.20926609551148 854.0302491877312 71.65167276794958 854.0981371782128 73.09407944038769 854.1119315768099 74.32019925964597 854.125725975407 75.54631907890426 854.1333021856301 76.78086614529175 854.1408783958532 78.01541321167923 854.150221968047 79.28929813928389 854.1595655402409 80.56318306688854 854.1671875768407 81.77693116810508 854.1748096134405 82.9906792693216 853.5206421464363 84.42658484693854 852.8664746794321 85.86249042455546 852.133984860465 86.8289708896552 851.401495041498 87.79545135475493 849.8469513644353 88.85957633700204 848.2924076873726 89.92370131924916 847.872241876491 89.88821447582225 847.4520760656095 89.85272763239536 847.0652373416779 89.6849348245724 846.6783986177462 89.51714201674945 846.3653890972756 89.23461119580249 846.052379576805 88.95208037485553 845.8459714392154 88.58439259231861 845.6395633016257 88.2167048097817 845.5613675334089 87.8023570735466 845.4831717651921 87.3880093373115 845.5413754839221 86.9703839647392 845.5995792026523 86.5527585921669 845.788088463614 86.17558107000812 845.9765977245756 85.79840354784933 846.2756755583846 85.50116446223927 846.5747533921937 85.20392537662923 846.9530862707013 85.01774573829478 847.3314191492088 84.83156609996033 847.7493955201651 84.77593896618176 848.1673718911213 84.72031183240318 848.581229518152 84.80106137877124 848.9950871451828 84.8818109251393 849.3614950254901 85.09048265283343 849.7279029057975 85.29915438052757 850.0084980375909 85.61390030457423 850.2890931693843 85.92864622862089 850.4544971682951 86.31651236768752 850.6199011672061 86.70437850675417 850.652796190886 87.12475517369379 850.685691214566 87.5451318406334 850.5826331453522 87.95400548744877 850.4795750761384 88.36287913426413 850.2513541210823 88.71744058220152 850.0231331660261 89.0720020301389 849.6936441193666 89.33512860200412 849.364155072707 89.59825517386935 848.9678955246059 89.74239744812945 848.5716359765048 89.88653972238954 848.1500944062507 89.89660596487963 847.7285528359967 89.90667220736971 847.3258647572713 89.78160847984384 846.9231766785459 89.65654475231797 846.5815036394913 89.40944526006172 846.2398306004366 89.16234576780546 845.9949458584344 88.81908189288598 845.7500611164323 88.4758180179665 845.6276041686137 88.07232957870073 845.5051472207952 87.66884113943497 845.5179393419221 87.24737348192465 845.5307314630492 86.82590582441433 845.677433314663 86.43058672365744 845.8241351662768 86.03526762290055 846.089387025788 85.70748709310044 846.3546388852992 85.37970656330032 846.7106688129971 85.1537833124527 847.0666987406951 84.9278600616051 847.4762303091671 84.8274483137117 847.8857618776392 84.7270365658183 847.8853721277798 84.72706706425426 847.8849823779203 84.72709756269022 848.6017198604687 84.32335530866578 849.3184573430171 83.91961305464133 848.556218549782 84.63192966596259 847.7939797565468 85.34424627728384 848.393020129876 84.16746277441615 848.9920605032052 82.99067927154844 848.9996825205365 81.77693125650401 849.0073045378679 80.56318324145957 849.0166467204295 79.28930383044408 849.0259889029912 78.0154244194286 849.0335233299048 76.78104586120364 849.0410577568184 75.54666730297869 849.0517803088098 74.33370221325997 849.0625028608011 73.12073712354125 849.1329762287316 72.08522731705028 849.2034495966623 71.04971751055933 849.0228468507867 69.14534083810571 848.8422441049112 67.2409641656521 848.4362513546969 65.99427045890636 848.0302586044825 64.74757675216061 847.10314894052 64.28200781157194 846.1760392765575 63.81643887098328 845.1936868969806 63.051591396383856 844.2113345174037 62.28674392178442 843.4043975660773 61.55900920375008 842.5974606147508 60.83127448571574 841.3398355913141 60.20389485612514 840.0822105678773 59.57651522653454 838.8596442886578 58.97990623752209 837.6370780094384 58.383297248509635 836.0381232278696 57.87086653968291 834.4391684463009 57.35843583085619 832.6860239714589 56.78731162438442 830.9328794966169 56.21618741791266 829.7764283376321 56.20026426830994 828.6199771786473 56.184341118707216 827.3740433220582 56.1524263110688 826.1281094654693 56.120511503430386 824.911261422594 56.08648315306718 823.6944133797186 56.05245480270398 822.3443900289783 56.014157478967064 820.994366678238 55.975860155230144 819.9896042985916 55.94810629004394 818.9848419189453 55.92035242485773 817.9147537231445 55.93288891822914 816.8446655273438 55.945425411600546 816.5933382595138 55.9149077754075 816.3420109916839 55.884390139214446 816.1052908764688 55.7946109170847 815.8685707612536 55.70483169495495 815.6602159828719 55.56100885949694 815.4518612044902 55.417186024038934 815.2839813524508 55.22767856520697 815.1161015004116 55.03817110637502 814.9984537596031 54.81399320658039 814.8808060187946 54.589815306785766 814.8202280814403 54.34399619609749 814.759650144086 54.09817708540921 814.7596628027511 53.845003782090245 814.7596754614164 53.59183047877128 814.8202779803787 53.34601742710582 814.8808804993412 53.10020437544037 814.9985506573514 52.8760382415407 815.1162208153617 52.65187210764102 815.2841196173074 52.46238143774177 815.4520184192531 52.272890767842526 815.6603875788767 52.12908876858144 815.8687567385001 51.98528676932035 816.1054858304537 51.895531219650984 816.3422149224075 51.805775669981614 816.5935452407443 51.77528316666789 816.8448755590813 51.744790663354166 816.8447705432125 51.74479065810337 Z" fill="#f97316"/><path d="M 528.9190288767683 331.0311898101176 Q 528.9190288767683 331.0311898101176 523.9279676459992 330.6382752850106 518.9369064152302 330.2453607599036 507.5753788194282 330.06889722616404 496.2138512236262 329.8924336924245 473.54177371689536 329.80896446156237 450.8696962101645 329.7254952307002 430.1748870290421 329.68427503429075 409.4800778479197 329.6430548378814 391.41077609951185 329.6213837504045 373.34147435110407 329.59971266292763 359.5982382024803 329.58749208607765 345.8550020538564 329.5752715092276 335.02045101753663 329.56789529777734 324.1858999812169 329.560519086327 317.441197287756 329.55579590279297 310.6964945942951 329.55107271925885 306.44500876904715 329.902880262646 302.19352294379917 330.2546878060332 298.2060419342171 330.40547847705557 294.2185609246351 330.556269148078 291.4559193181171 330.6194012783751 288.6932777115991 330.6825334086722 286.8047103956964 330.72393548322987 284.91614307979376 330.76533755778746 283.04100557754464 330.78902471981905 281.16586807529546 330.8127118818506 279.65593033677874 330.8624434804386 278.145992598262 330.9121750790266 275.6279799658578 331.01701223180544 273.1099673334535 331.1218493845843 272.8941318026754 331.08652123881797 272.67829627189735 331.0511930930516 272.48504043697517 330.9487956492452 272.29178460205304 330.84639820543873 272.1413423999178 330.68765250298907 271.99090019778254 330.5289068005394 271.8990229667106 330.3304335563978 271.80714573563864 330.13196031225624 271.78345304597644 329.91453972747615 271.7597603563143 329.69711914269607 271.80673283892384 329.4835152098974 271.8537053215333 329.2699112770988 271.96642494508575 329.0824883844316 272.0791445686382 328.8950654917644 272.24580955879253 328.7534468655657 272.4124745489469 328.61182823936707 272.6156350372387 328.5308413871836 272.81879552553045 328.44985453500016 273.0371805552064 328.437978801634 273.25556558488233 328.4261030682678 273.4663101856873 328.48458184613725 273.67705478649225 328.54306062400667 273.8580939430908 328.66577116963185 274.0391330996893 328.7884817152571 274.1715119645959 328.96257620211867 274.3038908295024 329.13667068898025 274.3737493006166 329.3439213783473 274.4436077717308 329.5511720677144 274.44363164868616 329.76987975770135 274.44365552564153 329.98858744768836 274.37384230851455 330.1958533854204 274.3040290913876 330.40311932315234 274.17168824244027 330.5772427102359 274.039347393493 330.7513660973195 273.8583350345449 330.8741161691629 273.6773226755967 330.99686624100633 273.4665908484121 331.0553910326847 273.2558590212276 331.1139158243631 273.03747140374065 331.10208777473866 272.8190837862537 331.0902597251142 272.615905619664 331.00931723410497 272.4127274530743 330.9283747430957 272.2460315450576 330.78679251087704 272.07933563704086 330.64521027865834 271.9665750931699 330.4578120023176 271.85381454929905 330.2704137259768 271.8067954282831 330.05682005451524 271.7597763072672 329.8432263830537 271.7834215234884 329.6258006302566 271.8070667397097 329.4083748774595 271.898900632788 329.2098815770395 271.9907345258664 329.0113882766195 272.1411420629547 328.8526097295278 272.291549600043 328.69383118243604 272.4847830723045 328.59139154446655 272.67801654456593 328.488951906497 272.89384435644604 328.45357663478654 273.10967216832614 328.4182013630761 273.109469394723 328.4182013852135 273.1092666211199 328.41820140735086 275.6238658553947 328.5159734473924 278.1384650896694 328.613745487434 279.64558265521293 328.65359603079685 281.15270022075646 328.69344657415974 283.0193907001426 328.6938841944851 284.8860811795287 328.69432181481045 286.76614712866393 328.68101908535334 288.6462130777992 328.6677163558963 291.3938181846287 328.6021313002765 294.1414232914582 328.5365462446567 298.0836020864898 328.38447294881576 302.0257808815214 328.2323996529748 306.36098238950956 327.87158609786 310.69618389749775 327.51077254274526 317.4412413384206 327.5078360265687 324.1862987793434 327.50489951039225 335.0210240874836 327.5017272221362 345.8557493956238 327.4985549338802 359.59928996282486 327.49622594101675 373.3428305300259 327.49389694815324 391.4128737971388 327.4955001759388 409.48291706425175 327.49710340372434 430.17943352856423 327.5106463020501 450.87594999287666 327.5241892003759 473.56004735902104 327.56957431006697 496.24414472516537 327.6149594197581 507.6752996054071 327.74168256967334 519.1064544856488 327.86840571958857 524.1028070427215 328.1888716266105 529.0991595997942 328.5093375336324 529.2487353460166 328.53843616748105 529.3983110922389 328.5675348013297 529.5365761875416 328.6315847644114 529.6748412828443 328.6956347274931 529.7937597533921 328.79091343294414 529.9126782239398 328.8861921383952 530.0053385226369 329.00716198337807 530.0979988213339 329.128131828361 530.1590155272665 329.2677620398017 530.2200322331992 329.40739225124236 530.2458590525516 329.5575675146913 530.2716858719041 329.70774277814024 530.2608217487223 329.8597349002299 530.2499576255403 330.0117270223196 530.2030339831738 330.15670221377275 530.1561103408072 330.301677405226 530.0758543835551 330.4312097011038 529.995598426303 330.5607419969816 529.8866746341716 330.66730297416166 529.7777508420403 330.77386395134164 529.6464898709462 330.85126028082334 529.515228899852 330.92865661030504 529.3692596436022 330.97239001378256 529.2232903873524 331.0161234172601 529.0710965859787 331.02365210726845 528.9189027846049 331.0311807972768 528.9189658306866 331.0311853036972 Z" fill="#f97316"/><path d="M 539.5313505262391 310.24144098255834 Q 539.5313505262391 310.24144098255834 540.1673678187294 311.68196495327743 540.8033851112198 313.12248892399646 541.796143762332 314.37454448815 542.7889024134442 315.6266000523035 543.5315178092912 316.9503315266827 544.2741332051382 318.27406300106185 545.3574327273454 319.36962858172274 546.4407322495525 320.46519416238357 547.173969043349 321.5735949163577 547.9072058371455 322.6819956703319 548.2337674593518 322.7983852405267 548.5603290815582 322.91477481072155 548.8326306508841 323.1293461985877 549.1049322202099 323.34391758645387 549.2944636904663 323.6342051110404 549.4839951607228 323.92449263562696 549.5709125369424 324.2601031164812 549.6578299131621 324.59571359733553 549.6330329231108 324.94150852851953 549.6082359330595 325.2873034597036 549.4743208281415 325.6070780206413 549.3404057232234 325.9268525815791 549.1113934502737 326.1871262913281 548.8823811773239 326.4474000010772 548.5822493817736 326.6209221335212 548.2821175862233 326.79444426596524 547.9422901462938 326.86304700803197 547.6024627063642 326.9316497500987 547.2585196447217 326.88815037658435 546.9145765830792 326.84465100307 546.6025288290699 326.69360390986424 546.2904810750606 326.54255681665853 546.0430001109019 326.2997766742926 545.7955191467431 326.0569965319267 545.638516294711 325.74790248539404 545.4815134426789 325.4388084388614 545.4314269428259 325.09576271642686 545.3813404429728 324.7527169939923 545.4434143650551 324.41163657335005 545.5054882871374 324.07055615270787 545.673223475127 323.7671522439357 545.8409586631166 323.4637483351635 546.0967931985532 323.2297874076006 546.3526277339898 322.99582648003775 546.6697756734795 322.8558043045597 546.9869236129692 322.7157821290817 547.3321794835285 322.68435906442335 547.6774353540877 322.652935999765 548.0146507749303 322.73340204909096 548.3518661957729 322.8138680984169 548.6457346233203 322.9977984451217 548.9396030508677 323.18172879182646 549.1593563831821 323.44986588005725 549.3791097154965 323.7180029682881 549.5017397206752 324.04227277412576 549.624369725854 324.3665425799635 549.6370370099837 324.712993969138 549.6497042941133 325.0594453583125 549.5510825892018 325.39180477892285 549.4524608842902 325.7241641995333 549.2528759088752 326.0076335325074 549.0532909334603 326.29110286548143 548.7736392871532 326.4960027968281 548.4939876408461 326.7009027281748 548.163548924836 326.8057801809938 547.833110208826 326.91065763381283 547.4864814439068 326.9045319111091 547.1398526789874 326.89840618840526 547.1401689097786 326.8984637398926 547.1404851405698 326.89852129137984 545.1453969710001 324.85011889646967 543.1503088014302 322.80171650155955 542.4093113997137 322.12171457708155 541.6683139979973 321.44171265260354 541.009957125121 320.1588443054394 540.3516002522447 318.8759759582753 539.7233519635952 317.7394039114209 539.0951036749457 316.60283186456644 538.2664067672146 315.7539280315643 537.4377098594834 314.90502419856216 536.6469662877159 313.4920088931582 535.8562227159484 312.07899358775416 535.7729803294134 311.8457579817932 535.6897379428783 311.61252237583227 535.6647332580121 311.36614277331057 535.6397285731459 311.1197631707889 535.6744148634078 310.874559165781 535.7091011536697 310.6293551607732 535.80146245024 310.39957802157113 535.8938237468103 310.1698008823691 536.0384920067927 309.9688052670993 536.1831602667752 309.7678096518295 536.3717273641023 309.60727743509517 536.5602944614294 309.4467452183609 536.7818008675449 309.3360065401412 537.0033072736603 309.22526786192157 537.2448790258331 309.17075885939767 537.4864507780061 309.1162498568738 537.7340477146499 309.12113859583354 537.9816446512937 309.12602733479326 538.2208764268174 309.1900296814986 538.4601082023412 309.2540320282038 538.6770706547111 309.373428163257 538.894033107081 309.49282429831015 539.0761163683715 309.66067491273213 539.258199629662 309.8285255271541 539.3948210121716 310.0350751353483 539.5314423946813 310.24162474354245 539.5313964604602 310.2415328630504 Z" fill="#f97316"/></svg>