<svg xmlns="http://www.w3.org/2000/svg" xmlns:xlink="http://www.w3.org/1999/xlink" version="1.1" style="overflow: hidden; display: block;" viewBox="462.07 84.87 469.26 457"><defs/><g id="two-0" transform="matrix(1 0 0 1 0 0)" opacity="1"/><path d="M 618.4176058933298 151.02939180617037 Q 618.4176058933298 151.02939180617037 611.1915009954567 162.02734902337897 603.9653960975837 173.02530624058758 589.8242936493838 195.84886629483148 575.6831912011838 218.67242634907538 557.1962370055045 252.5664313577176 538.7092828098251 286.4604363663598 525.4831358202205 311.9189506904251 512.2569888306158 337.37746501449044 502.3576290102154 358.1516479468856 492.45826918981504 378.92583087928074 487.1800577611057 390.9437489111666 481.90184633239625 402.96166694305253 478.9362633237963 409.85603157369985 475.9706803151963 416.75039620434717 473.9699112241794 420.81001698967054 471.96914213316245 424.869637774994 470.86691562007735 427.07404768795186 469.76468910699225 429.27845760090975 468.62380210214747 431.23471134598145 467.48291509730274 433.19096509105316 467.2421236125949 433.4587250527891 467.00133212788705 433.726485014525 466.70345689643 433.9288368929472 466.4055816649729 434.13118877136935 466.0679352092144 434.2563718657965 465.7302887534559 434.38155496022364 465.372495101269 434.4222936233259 465.01470144908205 434.4630322864282 464.6575555843426 434.4169587851919 464.30040971960324 434.3708852839557 463.96466897675043 434.24067741243766 463.6289282338977 434.11046954091955 463.3341058806808 433.90369498673 463.0392835274639 433.6969204325405 462.80251465290405 433.4255969424843 462.56574577834425 433.154273452428 462.4007914005555 432.83417036049525 462.23583702276665 432.5140672685625 462.15228429793626 432.1637889814963 462.0687315731059 431.8135106944301 462.0714365895268 431.4534154027325 462.0741416059478 431.09332011103487 462.1629471479385 430.7443365699784 462.2517526899292 430.3953530289218 462.42149737521675 430.0777641783095 462.59124206050427 429.7601753276972 467.7390676586855 430.54723511538936 472.8868932568667 431.3342949030815 488.3791606938754 434.76559234502065 503.8714281308841 438.19688978695984 526.9459066402113 443.2749432005816 550.0203851495386 448.3529966142034 568.3554767744716 451.95160494224046 586.6905683994047 455.5502132702776 601.6570408446457 458.88609320872206 616.6235132898869 462.2219731471666 630.8199669814089 465.43153079771247 645.016420672931 468.64108844825836 654.2974294464932 471.09212283427473 663.5784382200555 473.5431572202911 669.6700741602851 475.3064108376776 675.7617101005146 477.06966445506407 680.4217480214922 478.16175223684456 685.0817859424698 479.2538400186251 687.9131569866222 479.962586468376 690.7445280307745 480.67133291812684 694.0041407489094 481.36638395797274 697.2637534670444 482.0614349978187 699.8217204787336 482.69210764474883 702.3796874904227 483.3227802916789 704.7411349436711 484.27852337133646 707.1025823969194 485.234266450994 711.2607976694192 486.1265317225597 715.4190129419188 487.0187969941254 718.2805820198648 488.02730062073704 721.1421510978108 489.0358042473487 723.6781233714753 489.36710044962956 726.2140956451399 489.6983966519104 729.0025424620218 490.24437634538117 731.7909892789037 490.790356038852 735.0177257972346 491.424405453613 738.2444623155653 492.05845486837404 741.1309072362587 492.678668495744 744.017352156952 493.29888212311397 747.4727356422717 494.36688349592293 750.9281191275913 495.4348848687319 753.1873418597546 496.1931204194567 755.4465645919179 496.95135597018157 759.9405416749512 498.27630144467156 764.4345187579844 499.60124691916155 764.9934656642711 499.96064270592535 765.5524125705579 500.3200384926891 765.9673393846269 500.8390979445418 766.3822661986959 501.3581573963944 766.6097299735841 501.98253485170864 766.8371937484724 502.60691230702287 766.8533789669044 503.2712352814076 766.8695641853365 503.93555825579233 766.67277625067 504.57027195846524 766.4759883160035 505.2049856611382 766.0868309769451 505.7436353998813 765.6976736378866 506.28228513862445 765.1568917705632 506.66847414360166 764.6161099032398 507.0546631485788 763.9803235119127 507.2479573290249 763.3445371205856 507.44125150947104 762.6803132082582 507.42141291366875 762.0160892959307 507.40157431786645 761.3929722815615 507.17068005203305 760.7698552671923 506.93978578619965 760.2530856666729 506.5220105409181 759.7363160661534 506.1042352956365 759.3799997930721 505.54332024936974 759.0236835199906 504.982405203103 758.8651269821974 504.3370783092623 758.706570444404 503.69175141542166 758.7623745532604 503.02957857014195 758.8181786621169 502.36740572486224 759.082500712695 501.75771659984093 759.3468227632733 501.1480274748197 759.7919881671035 500.65465668238886 760.2371535709335 500.16128588995804 760.8165533927223 499.8358894823224 761.3959532145111 499.51049307468674 762.0489241399705 499.387140141622 762.70189506543 499.26378720855735 763.360070866297 499.35539283471746 764.0182466671639 499.44699846087764 764.612716163346 499.7439715130221 765.2071856595282 500.04094456516657 765.6757077378506 500.5121918863426 766.1442298161729 500.9834392075186 766.4377500913573 501.5796210788018 766.7312703665417 502.17580295008503 766.8190571882946 502.8344989721753 766.9068440100474 503.49319499426565 766.7797060749576 504.14543951977134 766.6525681398678 504.7976840452771 766.3238168233004 505.3751869002019 765.9950655067331 505.95268975512676 765.4991211583149 506.39498623811414 765.0031768098966 506.8372827211015 764.3919649338231 507.09806427362764 763.7807530577498 507.35884582615387 763.1182676987905 507.41080855082976 762.4557823398313 507.4627712755056 761.8113858899485 507.3004746613408 761.1669894400655 507.1381780471759 761.1675547099044 507.1384231118766 761.1681199797432 507.1386681765773 758.8765593180651 506.14689024205734 756.584998656387 505.1551123075373 752.7049440737346 503.91308408218896 748.8248894910823 502.6710558568406 745.6039778530966 501.79947818463245 742.3830662151108 500.9279005124243 739.6319171703522 500.341524414731 736.8807681255936 499.75514831703777 733.5568290163444 499.2287052778357 730.2328899070951 498.7022622386336 727.6793180425848 498.1962136454356 725.1257461780745 497.69016505223755 721.8064315037939 497.22468406173607 718.4871168295134 496.7592030712346 715.9643336907873 495.89293683247615 713.4415505520611 495.02667059371777 709.975851169673 494.0630125826248 706.5101517872849 493.0993545715319 702.9487359186033 491.52693221978313 699.3873200499218 489.95450986803445 697.1005532465285 488.79797277516224 694.8137864431353 487.64143568229 692.0332566777256 486.62604672784926 689.2527269123159 485.61065777340843 686.6457857844689 484.6730726447769 684.0388446566218 483.73548751614527 679.2599383240897 482.63239613027054 674.4810319915575 481.52930474439574 668.4347230717367 479.80601439020825 662.3884141519158 478.0827240360207 653.1808884029788 475.68720993423426 643.9733626540419 473.29169583244783 629.7743444911541 470.1332778505026 615.5753263282663 466.9748598685574 600.6570998042619 463.72006127375084 585.7388732802573 460.4652626789443 567.3281177498421 456.94914435992484 548.917362219427 453.4330260409053 525.8163668384129 448.484756228801 502.7153714573988 443.53648641669673 486.77298396285994 440.1619808901306 470.83059646832106 436.78747536356445 469.15684154032647 434.9890979269064 467.4830866123318 433.1907204902484 467.24232190482405 433.4585045297939 467.00155719731634 433.7262885693395 466.7037022025364 433.928670234273 466.4058472077565 434.1310518992065 466.06821327199566 434.2562687576533 465.7305793362348 434.3814856161 465.3727897597032 434.42226005836375 465.01500018317154 434.4630345006275 464.65784971286774 434.41699671420804 464.30069924256395 434.3709589277886 463.96494548060275 434.2407846309958 463.6291917186415 434.110610334203 463.33434868944335 433.90386526328257 463.0395056602452 433.6971201923622 462.8027096545203 433.42582038055 462.56591364879534 433.1545205687378 462.40092726152216 432.83443397384326 462.23594087424897 432.5143473789488 462.15235312200775 432.1640774489065 462.0687653697665 431.8138075188641 462.0714343766448 431.4537119584653 462.07410338352304 431.09361639806656 462.1628740267157 430.74462397820076 462.2516446699084 430.39563155833497 462.42135759546215 430.0780257348421 462.591070521016 429.76041991134923 463.91246447237575 428.2055420111754 465.23385842373546 426.65066411100156 466.51877550680433 424.736123313336 467.8036925898732 422.82158251567046 469.7411897671507 418.86809676335974 471.67868694442814 414.914611011049 474.6224871274261 407.99027518607267 477.5662873104241 401.06593936109635 482.8353812457917 388.9620203403431 488.1044751811593 376.85810131958976 497.9866778729713 355.9820242033808 507.8688805647833 335.1059470871718 521.0449150722042 309.5633612509185 534.220949579625 284.0207754146652 552.6784360358392 249.94741268625256 571.1359224920535 215.8740499578399 585.1735673354185 192.91608671763495 599.2112121787835 169.95812347743 606.2528212091331 158.841120596372 613.2944302394827 147.724117715314 613.5294072784613 147.4416069388177 613.76438431744 147.15909616232142 614.060144282301 146.94103059679335 614.3559042471621 146.7229650312653 614.6952575548517 146.5820186576197 615.0346108625413 146.44107228397414 615.397834282872 146.38543691206965 615.7610577032027 146.32980154016516 616.1270406739189 146.3627107004309 616.4930236446352 146.39561986069666 616.8404952182834 146.5151608711917 617.1879667919316 146.6347018816868 617.4967319043253 146.8339270132646 617.805497016719 147.03315214484243 618.0576102250186 147.30048242349514 618.3097234333183 147.56781270214785 618.490531906012 147.88771087951972 618.6713403787058 148.20760905689158 618.7703355188655 148.56148263588338 618.8693306590252 148.91535621487517 618.8807588644535 149.28263804644922 618.8921870698817 149.64991987802327 618.8153841327421 150.0092635248718 618.7385811956024 150.36860717172038 618.57801090621 150.6991275642049 618.4174406168175 151.02964795668944 618.4175232550737 151.0295198814299 Z" fill="#f97316"/><path d="M 619.9803124940505 142.83901451691136 Q 619.9803124940505 142.83901451691136 624.9624587472863 143.63330103981983 629.9446050005221 144.4275875627283 642.7839762475512 146.576656407672 655.6233474945803 148.72572525261572 668.2581885371821 151.44928990422795 680.893029579784 154.17285455584022 697.2529716319914 157.11402309015114 713.6129136841988 160.05519162446203 728.0792230540906 162.74582051653903 742.5455324239823 165.43644940861603 755.4816197670682 168.01571809763232 768.4177071101542 170.5949867866486 782.4476591228506 173.11755601532116 796.4776111355469 175.64012524399374 808.126794134203 177.42599435450558 819.775977132859 179.21186346501742 829.026397418444 180.68997296581983 838.2768177040291 182.16808246662228 847.8897658499827 183.50772394210145 857.5027139959363 184.8473654175806 863.74814458726 185.7776688672002 869.9935751785836 186.70797231681976 874.7921242545895 187.46170533165036 879.5906733305955 188.21543834648094 883.3367883478336 188.4482774480755 887.0829033650718 188.68111654967007 889.5957092458577 189.05585133406848 892.1085151266435 189.4305861184669 894.7839685365811 189.50240570872634 897.4594219465188 189.5742252989858 899.7080523812396 190.01967405190396 901.9566828159603 190.46512280482216 904.2117327273761 191.63531531467805 906.4667826387919 192.80550782453395 907.9748508827365 194.33092536538155 909.482919126681 195.85634290622914 909.6602285230407 196.44684384093176 909.8375379194003 197.0373447756344 909.8170115046079 197.65354980824765 909.7964850898154 198.26975484086088 909.580271984918 198.8471471418078 909.3640588800207 199.42453944275468 908.9747966541759 199.90266588570933 908.5855344283311 200.38079232866397 908.0639789393401 200.7095929488359 907.542423450349 201.03839356900784 906.9431816955864 201.18344285467012 906.3439399408238 201.3284921403324 905.7297526901978 201.27460339298688 905.1155654395716 201.22071464564138 904.5507382603523 200.97353003136038 903.9859110811329 200.72634541707941 903.5295815280845 200.3117452302286 903.0732519750361 199.89714504337778 902.773197872822 199.3585380329642 902.4731437706081 198.81993102255063 902.3607808629368 198.21370948474308 902.2484179552656 197.60748794693552 902.3355106682312 196.99712343676936 902.4226033811968 196.38675892660316 902.7000330847616 195.83615676941338 902.9774627883264 195.28555461222356 903.4161825192928 194.85236299921277 903.8549022502592 194.41917138620198 904.4089779369842 194.1487455936039 904.9630536237092 193.8783198010058 905.574473395531 193.79897348069093 906.1858931673528 193.71962716037606 906.7906412127625 193.83966789302676 907.3953892581721 193.95970862567745 907.9301482971773 194.2665681148975 908.4649073361825 194.57342760411757 908.8736879562366 195.03497758038262 909.2824685762907 195.49652755664766 909.5224713385666 196.0644436156054 909.7624741008424 196.6323596745631 909.8085706527751 197.24718085492535 909.8546672047078 197.8620020352876 909.7020312251417 198.4593563971734 909.5493952455756 199.05671075905923 909.2140077618633 199.57405514309292 908.8786202781508 200.0913995271266 908.3955964483706 200.47456783973422 907.9125726185904 200.8577361523418 907.3324851652262 201.0666105700467 906.752397711862 201.27548498775155 906.1359819444093 201.2881963038825 905.5195661769566 201.30090762001348 904.9313609889856 201.11612495641614 904.3431558010146 200.9313422928188 903.844746430977 200.56841244314973 903.3463370609394 200.2054825934806 902.9899071014454 199.70240440880428 902.6334771419515 199.19932622412796 902.6337278657022 199.19983993228067 902.6339785894529 199.20035364043338 901.008302011669 198.1491907527777 899.3826254338851 197.09802786512205 896.9950779426603 196.25599362570392 894.6075304514354 195.41395938628582 890.6419820117117 194.45474979186488 886.6764335719879 193.49554019744394 882.7839708818972 193.0908373200067 878.8915081918063 192.68613444256948 874.10964421679 191.93976868320766 869.3277802417736 191.1934029238458 863.1023982141936 190.27260439213944 856.8770161866137 189.35180586043305 847.218211553943 188.01447609969256 837.5594069212723 186.6771463389521 828.3214493741109 185.213605020559 819.0834918269495 183.75006370216585 807.3731982327001 181.971506504127 795.6629046384509 180.19294930608817 781.5863051377394 177.6857381336098 767.509705637028 175.17852696113138 754.5979909644211 172.63724894138488 741.6862762918141 170.09597092163838 727.2267773802962 167.45246467809247 712.7672784687783 164.80895843454655 696.3161289420252 161.91345147310182 679.8649794152722 159.01794451165705 667.3324729122502 156.40092795456337 654.7999664092282 153.78391139746972 641.9931409094312 151.75967970911876 629.1863154096342 149.7354480207678 624.1810654226356 149.10295613181103 619.175815435637 148.47046424285426 618.8447260634655 148.3814180383812 618.5136366912939 148.29237183390816 618.2134796006976 148.12667596835684 617.9133225101014 147.96098010280548 617.6615428452887 147.72826482766686 617.409763180476 147.49554955252825 617.2209943873956 147.2093402905275 617.0322255943154 146.9231310285268 616.9174389240904 146.6000622754189 616.8026522538654 146.27699352231102 616.7685191131626 145.93584204920592 616.7343859724598 145.59469057610085 616.7828901810204 145.25528412264435 616.8313943895811 144.91587766918784 616.9597168805248 144.59794255440175 617.0880393714684 144.2800074396157 617.2887220355922 144.00202206730955 617.489404699716 143.7240366950034 617.750783851152 143.50215758807667 618.0121630025881 143.28027848114996 618.319047272774 143.12740126372222 618.62593154296 142.97452404629445 618.9604848036937 142.89953394942546 619.2950380644274 142.82454385255645 619.6378160644763 142.83179930419965 619.9805940645251 142.83905475584285 619.9804532792878 142.8390346363771 Z" fill="#f97316"/><path d="M 908.8644019360221 198.74161451375636 Q 908.8644019360221 198.74161451375636 907.4028007591153 202.65311299922737 905.9411995822084 206.5646114846984 902.3661340063863 214.02300882021348 898.7910684305645 221.48140615572856 893.3517269464357 233.1458891102355 887.912385462307 244.8103720647424 879.513178292556 262.2645173070381 871.1139711228047 279.7186625493338 864.3326974302304 294.24598102592256 857.5514237376559 308.7732995025113 851.4469105658105 321.7306205293121 845.3423973939651 334.6879415561129 837.7263101435426 349.1544652350645 830.1102228931201 363.6209889140161 824.3873778074354 374.7315429182971 818.6645327217508 385.84209692257815 814.4627049066291 394.8085954981418 810.2608770915074 403.7750940737055 807.3778885599961 409.4194505946236 804.4949000284848 415.0638071155417 802.5996245001048 418.58697881676386 800.7043489717248 422.110150517986 799.688408062723 424.62471723675026 798.6724671537214 427.13928395551454 797.2603974757501 430.0809540139297 795.8483277977788 433.0226240723449 795.2781518187837 435.6369693445852 794.7079758397888 438.25131461682554 793.119538298349 441.09491299245036 791.531100756909 443.9385113680752 790.5975579377914 447.2991451255643 789.6640151186739 450.6597788830534 788.9623550954905 452.8720034182174 788.260695072307 455.0842279533814 786.1307243713288 460.5323785098176 784.0007536703505 465.9805290662538 782.6567097363134 468.892322125014 781.3126658022762 471.80411518377423 779.5910148360238 475.1579814263549 777.8693638697712 478.51184766893556 776.8991245582243 481.2006992983494 775.9288852466775 483.88955092776314 774.7229021666362 486.38546816061705 773.5169190865948 488.8813853934709 772.7962906133832 491.06919997401485 772.0756621401717 493.25701455455885 770.6795943694099 496.9007841709942 769.2835265986479 500.54455378742955 765.936134668447 505.0199250814519 762.5887427382461 509.4952963754742 761.8947491214972 509.54438052861525 761.2007555047481 509.5934646817563 760.5274194190446 509.41837924584763 759.854083333341 509.2432938099389 759.2719032445996 508.86237027633814 758.689723155858 508.4814467427374 758.2596534730505 507.9345679059667 757.829583790243 507.3876890691959 757.5966529226866 506.7321132878271 757.3637220551303 506.07653750645824 757.3523179261462 505.38090373785576 757.340913797162 504.68526996925334 757.552230422065 504.02241125261946 757.763547046968 503.3595525359856 758.1754595193488 502.7988703539296 758.5873719917296 502.23818817187356 759.1567529669953 501.83838609686234 759.7261339422612 501.4385840218511 760.3933690819997 501.24152143667595 761.0606042217383 501.04445885150074 761.7558338306861 501.07076826084887 762.4510634396339 501.097077670197 763.1014967942112 501.34400447196464 763.7519301487886 501.5909312737323 764.2894667050734 502.0326221665921 764.8270032613583 502.4743130594519 765.1953628000119 503.0645228903264 765.5637223386655 503.65473272120084 765.7243375187531 504.3316663649971 765.884952698841 505.0086000087934 765.8210070686093 505.7013823343129 765.7570614383778 506.39416465983237 765.4752501221922 507.03026117471643 765.1934388060066 507.6663576896005 764.7232675230625 508.1791689208276 764.2530962401185 508.69198015205467 763.6437920478534 509.0278146283463 763.0344878555882 509.3636491046379 762.3498450637728 509.48734486767466 761.6652022719576 509.6110406307114 760.9769031616233 509.5096467014507 760.288604051289 509.4082527721901 759.668713720981 509.09238512179115 759.048823390673 508.7765174713922 758.5622445216097 508.27924752623255 758.0756656525465 507.78197758107297 757.7733431807633 507.15536963567746 757.47102070898 506.52876169028195 757.3846078770778 505.8384217619419 757.2981950451756 505.14808183360185 757.4367392994654 504.4662886950465 757.5752835537553 503.7844955564911 757.9242792742409 503.1826331293031 758.2732749947264 502.58077070211505 758.796182237347 502.1218541412972 759.3190894799676 501.66293758047937 759.9611597183866 501.39501557109156 760.6032299568056 501.1270935617037 760.60260234159 501.1272424751634 760.6019747263742 501.12739138862315 760.3420832408792 501.20984727709686 760.0821917553843 501.29230316557056 761.113779211078 499.02097367544786 762.1453666667718 496.7496441853252 763.506996537845 493.7274941642312 764.8686264089183 490.70534414313715 765.8450053147328 488.1000724859782 766.8213842205474 485.49480082881934 767.9298174861465 483.4270781520736 769.0382507517456 481.3593554753279 770.1565299958876 478.3458987150817 771.2748092400295 475.3324419548356 772.7887773880354 471.9833633364058 774.3027455360415 468.6342847179759 775.536296467585 465.8457372576076 776.7698473991285 463.0571897972393 778.6832172669504 457.79616352382095 780.5965871347723 452.5351372504026 781.3589224166537 450.3457067068534 782.1212576985351 448.15627616330414 783.7523538339242 443.7465452291931 785.3834499693131 439.33681429508204 786.7374048304994 437.47168243184564 788.0913596916855 435.60655056860924 789.2183235824962 432.8258341365172 790.3452874733069 430.04511770442514 792.0883989937753 427.4686450463575 793.8315105142436 424.89217238828985 795.1688140054002 422.3296746053675 796.506117496557 419.76717682244515 798.4693454223639 416.37998227027333 800.4325733481708 412.9927877181015 803.2713320870809 407.4131268051376 806.1100908259909 401.8334658921737 810.3355711850686 392.7832639368432 814.5610515441462 383.73306198151266 820.2743733251436 372.5940509153992 825.9876951061411 361.4550398492857 833.5303578476361 347.0694015749194 841.073020589131 332.68376330055315 847.1363985977166 319.7175295762108 853.1997766063022 306.7512958518684 859.9417902098244 292.17452302808806 866.6838038133467 277.5977502043077 874.9971338476466 260.14277221802365 883.3104638819465 242.68779423173964 888.6592743324414 230.96259464416093 894.0080847829364 219.23739505658222 897.352859409446 211.94654689153273 900.6976340359556 204.65569872648325 902.0895896827792 200.71995104191032 903.4815453296029 196.7842033573374 903.6377652571246 196.47636343391463 903.7939851846463 196.1685235104919 904.0193385723599 195.90701646497718 904.2446919600734 195.64550941946248 904.5260812584967 195.44553405362797 904.80747055692 195.24555868779348 905.1285414068077 195.11873757929726 905.4496122566953 194.99191647080107 905.7917040051665 194.94562046842765 906.1337957536376 194.89932446605425 906.4770260121979 194.93624429563675 906.8202562707584 194.97316412521926 907.1446764806537 195.09115400452768 907.4690966905492 195.2091438838361 907.7558515339379 195.40134623554133 908.0426063773264 195.59354858724654 908.2750296492372 195.84879260163683 908.507452921148 196.10403661602714 908.6720361700973 196.4074874989936 908.8366194190465 196.71093838196 908.9237970588724 197.044959553927 909.0109746986983 197.37898072589397 909.0156799608781 197.72415886065284 909.0203852230578 198.06933699541173 908.9423446375325 198.4056103235522 908.8643040520072 198.7418836516927 908.8643529940147 198.74174908272454 Z" fill="#f97316"/><path d="M 619.7551473062363 180.9612858334963 Q 619.7551473062363 180.9612858334963 622.8248277763664 181.77180623826592 625.8945082464965 182.58232664303554 631.2441807498767 184.15382912096126 636.5938532532571 185.72533159888698 643.2829287618915 187.52985160724108 649.9720042705261 189.3343716155952 657.1878848787346 191.31712141062218 664.403765486943 193.29987120564914 671.988992495947 195.08588837444557 679.5742195049509 196.871905543242 686.0069194507498 198.5197240227194 692.4396193965487 200.16754250219677 698.3162475434056 201.54486382331393 704.1928756902626 202.9221851444311 708.861749248445 203.9407843003337 713.5306228066274 204.95938345623628 717.4762771811942 205.87608959569116 721.4219315557609 206.79279573514603 724.8257265409494 207.63262458422776 728.2295215261379 208.47245343330948 731.0577170800414 209.0906666534678 733.8859126339449 209.70887987362613 736.3187622979832 210.33193505826875 738.7516119620215 210.95499024291135 741.031868845713 211.57660883730875 743.3121257294044 212.19822743170613 745.1488878778548 212.65501268181401 746.985650026305 213.1117979319219 748.8136994524143 213.44658810594495 750.6417488785235 213.78137827996798 752.197420599271 214.19995890237104 753.7530923200187 214.6185395247741 755.0722802182366 215.09211886138033 756.3914681164546 215.56569819798656 758.3819059840903 216.48083755756454 760.3723438517259 217.3959769171425 760.3710931566047 217.4008179667925 760.3698424614836 217.4056590164425 760.3685917663624 217.41050006609254 760.3673410712413 217.41534111574254 758.1484703511608 217.1300863290606 755.9295996310804 216.84483154237867 754.6648122093176 216.38523982813822 753.4000247875548 215.92564811389778 751.8985187291464 215.51938123983402 750.3970126707381 215.11311436577026 748.5279891734383 214.76953919935067 746.6589656761383 214.42596403293106 744.8074520073255 213.96541954613204 742.9559383385126 213.50487505933302 740.6857104825581 212.88602071673665 738.4154826266036 212.26716637414026 736.0060175061888 211.64981508860188 733.5965523857739 211.03246380306348 730.7507383658258 210.41036580892631 727.9049243458776 209.78826781478912 724.5100379662766 208.95086716516158 721.1151515866757 208.11346651553404 717.1783334686846 207.19915555368485 713.2415153506936 206.28484459183565 708.5623220587436 205.2644704223906 703.8831287667936 204.24409625294552 697.9927763246815 202.8641852206514 692.1024238825693 201.48427418835726 685.6823608489949 199.84063083389032 679.2622978154207 198.1969874794234 671.6524128322131 196.40616468278384 664.0425278490056 194.61534188614428 656.8292167590855 192.63534484421166 649.6159056691653 190.65534780227907 642.9115167198102 188.84936141719058 636.2071277704551 187.0433750321021 630.8750602197431 185.48069893055623 625.5429926690309 183.91802282901037 622.471986646241 183.11256954756172 619.4009806234512 182.30711626611307 619.3230315575552 182.2761487300782 619.2450824916591 182.2451811940433 619.1768098751963 182.19645856066347 619.1085372587335 182.14773592728363 619.0539090993805 182.08408995830007 618.9992809400276 182.02044398931653 618.9614722289728 181.945573791437 618.923663517918 181.87070359355747 618.9048716992244 181.78896062620046 618.8860798805307 181.70721765884346 618.8873971355836 181.62335282711246 618.8887143906363 181.53948799538145 618.91006416051 181.45837552723702 618.9314139303839 181.3772630590926 618.9715553654505 181.30361721499435 619.011696800517 181.2299713708961 619.0682968786841 181.16807245076325 619.1248969568513 181.10617353063043 619.1946660789167 181.05961910260942 619.2644352009822 181.01306467458843 619.3433183822933 180.9845604842232 619.4222015636045 180.95605629385796 619.5056141099573 180.9472590060318 619.58902665631 180.93846171820562 619.6721206265912 180.9498826317003 619.7552145968724 180.961303545195 619.7551809515544 180.96129468934566 Z" fill="#f97316"/><path d="M 596.1037145873993 225.60950753698103 Q 596.1037145873993 225.60950753698103 598.3657078919546 225.9352945151428 600.6277011965097 226.26108149330457 604.0846160561211 226.82616180395058 607.5415309157327 227.3912421145966 612.0088477591701 227.80535972255734 616.4761646026076 228.21947733051812 622.0853533884762 229.1777053486702 627.6945421743447 230.13593336682226 635.2127365229403 231.32611394627185 642.7309308715359 232.51629452572143 650.0659139668635 233.5577180275519 657.4008970621912 234.59914152938242 664.6098941926889 235.69353114259982 671.8188913231866 236.78792075581723 679.4090430007043 237.91993015506375 686.9991946782219 239.05193955431028 694.0720463978341 240.21311775253412 701.1448981174462 241.37429595075798 708.3110241779228 242.55564508403398 715.4771502383994 243.73699421731 721.5772010515967 244.60947632473636 727.677251864794 245.48195843216274 733.3340175640724 246.45262981950816 738.9907832633509 247.42330120685355 743.9765379424343 248.30188458451062 748.9622926215179 249.18046796216765 752.9797321949891 249.99316901291195 756.9971717684601 250.80587006365622 760.2786869654467 251.40446281016733 763.5602021624334 252.00305555667848 766.4665517748442 252.4449754915953 769.3729013872552 252.8868954265121 771.6875474332298 253.2144021016111 774.0021934792046 253.54190877671013 775.8740242541919 253.78393327667044 777.7458550291791 254.02595777663078 779.4481368363037 254.20438863017324 781.1504186434282 254.38281948371568 782.5732300623216 254.51428152901133 783.996041481215 254.64574357430695 785.2521622541835 254.90887713638207 786.508283027152 255.1720106984572 788.4086676711502 255.67647648012854 790.3090523151483 256.1809422617999 791.7162618540339 256.55077758658507 793.1234713929194 256.92061291137026 794.26861878607 257.31399155805167 795.4137661792205 257.7073702047331 796.5607119251374 258.3070648971001 797.7076576710544 258.906759589467 799.1885597294868 259.38540921958315 800.669461787919 259.86405884969935 802.2603430678607 260.2415732178267 803.8512243478026 260.6190875859541 805.6167210950559 261.0013086690254 807.3822178423092 261.38352975209665 809.2972742911027 262.3515514375308 811.2123307398962 263.31957312296504 811.2118388788722 263.32454887142467 811.2113470178482 263.32952461988424 811.2108551568242 263.3345003683438 811.2103632958002 263.33947611680344 808.3092140352733 262.8255698328283 805.4080647747463 262.3116635488532 803.674394617477 262.01454975589775 801.9407244602075 261.7174359629424 800.1559891785498 261.18613767330265 798.3712538968922 260.65483938366293 797.1205148241918 260.16735716884216 795.8697757514913 259.67987495402133 794.3347330468507 258.99275340155634 792.7996903422103 258.3056318490913 791.3026306396291 257.89435642907665 789.805570937048 257.483081009062 788.014182788354 256.9962439462147 786.2227946396602 256.50940688336743 785.0460416990484 256.2531660770302 783.8692887584365 255.99692527069288 782.4392518185937 255.86309723334148 781.0092148787509 255.7292691959901 779.2907312951503 255.54895754426275 777.5722477115497 255.36864589253537 775.6923804660701 255.12555544284078 773.8125132205903 254.88246499314616 771.4909108985162 254.5539676795299 769.1693085764422 254.22547036591365 766.2432633061569 253.78029903819993 763.3172180358717 253.33512771048623 760.0229361724755 252.73413795174986 756.7286543090792 252.1331481930135 752.7279568226543 251.32369575457932 748.7272593362295 250.5142433161451 743.7444724931386 249.6362869549468 738.7616856500478 248.75833059374847 733.1235497121393 247.79074178955108 727.4854137742307 246.82315298535366 721.3710774725337 245.94868240577745 715.2567411708367 245.0742118262012 708.0910086055371 243.8932179074115 700.9252760402376 242.71222398862182 693.8621999722627 241.55297707182024 686.7991239042877 240.39373015501863 679.2071515557411 239.26199860021373 671.6151792071944 238.13026704540883 664.4125478121761 237.03757308914348 657.2099164171577 235.94487913287813 649.864059957441 234.90287479160065 642.5182034977241 233.86087045032315 634.9915136265984 232.6707461064285 627.4648237554726 231.48062176253387 621.9072821524928 230.53118255062458 616.3497405495131 229.5817433387153 611.8353053207354 229.16437224331162 607.3208700919577 228.74700114790795 603.876619237763 228.18768835055607 600.4323683835684 227.6283755532042 598.1696369566782 227.30777385186158 595.9069055297882 226.98717215051897 595.8259085958418 226.96538816893974 595.7449116618956 226.94360418736053 595.6714819114748 226.9030688087972 595.5980521610539 226.86253343023387 595.5364573347031 226.80560257279302 595.4748625083521 226.7486717153522 595.4286825002728 226.67865420314325 595.3825024921933 226.60863669093428 595.3544212866248 226.52960194505653 595.3263400810563 226.45056719917878 595.3179897589856 226.3671087227761 595.309639436915 226.28365024637338 595.3215053194532 226.20061865001554 595.3333712019914 226.1175870536577 595.364763643488 226.03980813762627 595.3961560849847 225.9620292215948 595.4452505552649 225.89402350014393 595.494345025545 225.82601777869306 595.5582881516893 225.77173774754874 595.6222312778337 225.7174577164044 595.6973066823464 225.68005813352704 595.7723820868591 225.64265855064968 595.8542263837026 225.62431308155334 595.9360706805459 225.605967612457 596.0199270753419 225.60774249666753 596.1037834701378 225.60951738087806 596.1037490287686 225.60951245892954 Z" fill="#f97316"/><path d="M 582.4156962760549 264.0657026892246 Q 582.4156962760549 264.0657026892246 584.3547049567062 264.2299191898526 586.2937136373577 264.3941356904806 589.2053963825813 264.84148806674875 592.117079127805 265.2888404430169 596.5134314470561 265.9404971323973 600.9097837663072 266.5921538217777 605.4644972096797 267.3989682806706 610.0192106530523 268.2057827395636 614.8391728446943 269.12527045022654 619.6591350363364 270.0447581608895 624.6775320646877 271.0478760007758 629.695929093039 272.0509938406621 634.0416865522302 272.7905982249474 638.3874440114214 273.53020260923273 642.2589201855777 274.2408042547553 646.130396359734 274.9514059002778 649.1485880478206 275.4757616358232 652.1667797359072 276.00011737136856 654.7374766959138 276.5524537101778 657.3081736559204 277.104790048987 659.3554622132524 277.5102054924472 661.4027507705842 277.9156209359074 663.9776380188466 278.32306768479475 666.552525267109 278.7305144336822 666.552786898242 278.73550758390525 666.5530485293748 278.7405007341283 666.5533101605076 278.7454938843514 666.5535717916406 278.75048703457446 663.8469701292738 278.99763156919164 661.140368466907 279.24477610380876 659.0818951191823 278.83728733681767 657.0234217714576 278.4297985698266 654.4790821489601 277.88287296076385 651.9347425264626 277.3359473517012 648.9101539870223 276.8108513014765 645.8855654475822 276.28575525125177 642.0226428722701 275.5772199315679 638.1597202969581 274.86868461188413 633.7946875732032 274.1262814060255 629.4296548494483 273.38387820016686 624.4169431907026 272.382928981035 619.404231531957 271.38197976190315 614.5928730788601 270.46553183416285 609.7815146257632 269.54908390642254 605.2455483196181 268.74732096979915 600.7095820134731 267.9455580331757 596.3092811461115 267.2960751810733 591.90898027875 266.64659232897094 589.0438835038017 266.20855337722855 586.1787867288532 265.77051442548617 584.2394553826491 265.6115306239901 582.3001240364451 265.4525468224941 582.2179876986834 265.4355566141012 582.1358513609217 265.4185664057083 582.0601680569689 265.3824128074789 581.9844847530161 265.34625920924947 581.919653200054 265.29304347001136 581.8548216470917 265.23982773077324 581.8046098580245 265.1726427517913 581.7543980689572 265.1054577728093 581.7217243553246 265.0282083482185 581.689050641692 264.9509589236278 581.6758140012656 264.8681347936151 581.6625773608392 264.7853106636024 581.6695471077825 264.70172557049546 581.6765168547257 264.6181404773885 581.7032879070189 264.53865239072604 581.7300589593119 264.45916430406356 581.7750753821379 264.3883930751771 581.8200918049637 264.31762184629054 581.8807372417125 264.25968070232807 581.9413826784614 264.2017395583656 582.0141324135001 264.1599960413366 582.0868821485387 264.1182525243076 582.1675079638485 264.0951327693831 582.2481337791584 264.07201301445866 582.3319496985655 264.06886074288116 582.4157656179725 264.0657084713037 582.4157309470137 264.0657055802642 Z" fill="#f97316"/><path d="M 694.1547124805514 285.16821173650607 Q 694.1547124805514 285.16821173650607 695.770180918475 285.49397690942976 697.3856493563986 285.81974208235346 700.5293912226754 286.5475328092868 703.6731330889521 287.2753235362201 707.4572449314162 288.29978327114134 711.2413567738802 289.3242430060626 715.9775663574342 290.72812475074136 720.7137759409882 292.1320064954201 725.3301789980873 293.32695071809565 729.9465820551864 294.5218949407712 734.8300307090974 295.8945149475711 739.7134793630084 297.267134954371 743.9530126148177 298.27741254714556 748.1925458666268 299.2876901399202 751.9709566489331 300.03451220750475 755.7493674312394 300.7813342750893 759.2025276825689 301.49790567847106 762.6556879338982 302.2144770818528 765.8561052591626 302.9060875183899 769.056522584427 303.59769795492696 771.5784163233373 304.10779574221306 774.1003100622476 304.61789352949916 776.282106225211 304.9939935267425 778.4639023881743 305.3700935239858 780.2409436037856 305.6487095984064 782.0179848193969 305.92732567282707 783.3361655809362 306.132067534061 784.6543463424754 306.33680939529484 785.7835805956265 306.4854400355231 786.9128148487777 306.6340706757513 788.8035558230796 306.8223199214288 790.6942967973815 307.0105691671063 792.2181623186261 307.29071820380386 793.7420278398706 307.57086724050146 795.4207430371259 308.73224596592274 797.0994582343814 309.893624691344 797.0966808907951 309.8977823785141 797.093903547209 309.90194006568413 797.0911262036229 309.9060977528542 797.0883488600367 309.9102554400243 795.1867602191417 309.4160770263844 793.2851715782467 308.9218986127446 791.9251404034924 308.66388902260815 790.5651092287379 308.40587943247164 788.6473765488296 308.20103688817335 786.7296438689212 307.99619434387506 785.5865282514643 307.83924045599315 784.4434126340074 307.6822865681113 783.1258158183821 307.4737971540104 781.8082190027568 307.2653077399095 780.0209903371449 306.9851256056286 778.2337616715331 306.70494347134763 776.0327619873995 306.32540018434275 773.8317623032659 305.9458568973379 771.3010378643437 305.43412468564054 768.7703134254215 304.9223924739432 765.5752935288635 304.23221792199695 762.3802736323057 303.5420433700507 758.9332960702689 302.8271277060095 755.4863185082319 302.1122120419683 751.6821025095667 301.36032590789216 747.8778865109015 300.60843977381603 743.6118655074142 299.5920666544058 739.3458445039269 298.57569353499565 734.4757178414638 297.2077446274145 729.6055911790008 295.8397957198333 724.9659722671188 294.639900310775 720.3263533552367 293.44000490171663 715.6052815280287 292.04247044701884 710.8842097008207 290.64493599232105 707.1241141275896 289.6293161594698 703.3640185543585 288.6136963266186 700.2393894329643 287.89389467889526 697.1147603115702 287.17409303117194 695.4982734272281 286.8534655496767 693.8817865428861 286.53283806818143 693.8021226891367 286.50659467724313 693.7224588353873 286.4803512863048 693.651390665641 286.4358051258524 693.5803224958946 286.3912589654001 693.5219804955161 286.33099906037216 693.4636384951375 286.27073915534424 693.4214135039299 286.1982678142523 693.3791885127224 286.1257964731604 693.3555346491587 286.0453257337537 693.3318807855951 285.96485499434704 693.328172813337 285.8810618197808 693.324464841079 285.7972686452147 693.3409182676485 285.71502309873176 693.3573716942178 285.6327775522489 693.3930302456895 285.5568597488752 693.428688797161 285.48094194550146 693.4814799968478 285.41576423153595 693.5342711965347 285.3505865175705 693.6011268174307 285.29993702481124 693.6679824383265 285.249287532052 693.7450168286039 285.216110011398 693.8220512188811 285.18293249074395 693.9047871361574 285.1691552212543 693.9875230534337 285.1553779517647 694.0711518823097 285.1618016689896 694.1547807111856 285.1682253862145 694.1547465958686 285.1682185613603 Z" fill="#f97316"/><path d="M 564.0062872190982 302.57388235620647 Q 564.0062872190982 302.57388235620647 565.6212815121446 303.2227014033207 567.2362758051911 303.8715204504349 569.3918363687831 304.67126682552515 571.547396932375 305.4710132006154 574.9242470109906 306.7108184874427 578.3010970896062 307.95062377426996 581.6092757066076 309.19174320500224 584.9174543236089 310.4328626357346 588.0011562150949 311.508950357369 591.0848581065807 312.58503807900337 594.1674325869545 313.5406583681319 597.2500070673284 314.49627865726046 600.1964827382078 315.5329173413413 603.1429584090872 316.5695560254221 605.7967108990931 317.49443386628684 608.4504633890989 318.4193117071515 610.8975616810742 319.26480441915356 613.3446599730494 320.1102971311556 615.4847165310123 320.89970692646574 617.6247730889752 321.68911672177586 619.5076291363412 322.2650611539631 621.390485183707 322.84100558615023 623.1299861938105 323.4364463855036 624.869487203914 324.0318871848569 626.329982333996 324.63899109100475 627.7904774640781 325.24609499715257 629.183668312269 325.85307991370547 630.5768591604599 326.4600648302584 631.8981244899605 326.89542909438677 633.2193898194612 327.33079335851517 634.6695021345615 327.65276369865137 636.1196144496618 327.9747340387875 637.679120532681 328.21539639433576 639.2386266157005 328.456058749884 640.7552083207256 328.8032699047542 642.2717900257506 329.15048105962444 643.7174245601477 329.57010330623496 645.1630590945449 329.98972555284547 646.8304511225462 330.2885937992197 648.4978431505474 330.5874620455939 650.1000324287534 330.98040666725666 651.7022217069592 331.3733512889194 653.1782213740454 331.65701783780565 654.6542210411316 331.9406843866919 656.4112447311645 332.31613354912554 658.1682684211974 332.69158271155925 659.9286752877183 332.96476139086656 661.6890821542394 333.23794007017386 663.475756814753 333.4406552421076 665.2624314752667 333.6433704140413 666.9096764679241 333.793890701353 668.5569214605816 333.94441098866474 670.0974543184775 334.05577306192663 671.6379871763734 334.1671351351885 673.1361166384075 334.4150003128363 674.6342461004417 334.6628654904841 675.8740391755337 334.8398670308312 677.1138322506257 335.0168685711783 678.3464961419782 335.14683313725976 679.5791600333306 335.27679770334123 681.4569317539374 335.44140439552115 683.3347034745442 335.60601108770106 684.871838440427 335.8672701812845 686.4089734063099 336.1285292748679 687.7959947240322 336.6699362651218 689.1830160417546 337.21134325537565 690.2691005183401 337.6886658539901 691.3551849949256 338.1659884526045 692.4040586550439 338.50117712377744 693.452932315162 338.8363657949504 694.9006500642047 339.08745545825013 696.3483678132475 339.33854512154994 697.9217493034886 339.63591478891306 699.4951307937297 339.9332844562761 700.643728738744 340.47466983617164 701.7923266837583 341.01605521606723 703.009318755261 341.8403727220479 704.2263108267637 342.6646902280286 705.3061791127216 343.08265578697865 706.3860473986796 343.5006213459287 708.4666156992055 343.9297617098864 710.5471839997313 344.35890207384415 711.9814000690926 344.73506317397164 713.415616138454 345.1112242740992 714.61729209001 345.38079841744036 715.818968041566 345.6503725607815 717.0193421860411 345.8479116381243 718.219716330516 346.0454507154671 720.2178303125377 346.29863868651887 722.2159442945593 346.55182665757064 723.5120550721198 346.9857859759678 724.8081658496802 347.41974529436493 726.6514685648563 347.87663592933507 728.4947712800323 348.33352656430515 730.2040098067243 348.79416906862207 731.9132483334165 349.25481157293893 734.0470245596778 349.62059518380624 736.1808007859391 349.9863787946735 738.040857345803 350.18768653193104 739.9009139056668 350.3889942691885 741.4763084564677 350.4971287207852 743.0517030072684 350.60526317238185 744.198059213313 350.6629679866468 745.3444154193575 350.72067280091176 746.7418248488868 351.03816846230916 748.1392342784162 351.3556641237065 749.4134401875416 351.5222065548104 750.687646096667 351.68874898591423 752.1500417257653 351.956884697889 753.6124373548636 352.2250204098637 754.8933894652723 352.4732455873666 756.1743415756812 352.7214707648694 757.6602158152407 353.0334540157329 759.1460900548002 353.34543726659643 760.7321934643203 353.6220373295075 762.3182968738405 353.89863739241855 763.7544296790902 354.0521346748008 765.1905624843398 354.2056319571831 766.6567882077841 354.2898428834152 768.1230139312285 354.37405380964736 769.4911752941632 354.42054560148335 770.8593366570979 354.46703739331934 771.9633622550168 354.7814377647303 773.0673878529359 355.0958381361412 774.4492234109383 355.30513718156726 775.8310589689407 355.5144362269933 776.9562897805224 355.7623755865834 778.0815205921041 356.01031494617354 779.1296064279138 356.45441852345414 780.1776922637237 356.89852210073474 781.7796804215975 357.4747030257651 783.3816685794714 358.0508839507955 784.940908710345 358.48692279345187 786.5001488412184 358.9229616361083 787.7044212111341 359.3533282983295 788.9086935810499 359.78369496055063 790.5239903820222 360.2697504670609 792.1392871829945 360.7558059735711 793.5167402959685 361.1216622088442 794.8941934089426 361.48751844411726 796.4077856002245 362.1639964298227 797.9213777915066 362.84047441552815 797.9216296168433 362.8454680699015 797.9218814421799 362.85046172427474 797.9221332675165 362.855455378648 797.9223850928532 362.8604490330213 795.8312598874223 362.8260636930214 793.7401346819914 362.7916783530215 792.2318229991147 362.260259757609 790.723511316238 361.72884116219643 789.5938514222569 361.4877201750315 788.4641915282757 361.24659918786654 787.3339287677697 360.8348248700815 786.2036660072639 360.42305055229644 785.0340891087619 360.1485952523236 783.8645122102599 359.87413995235073 782.6823126792783 359.41747061196395 781.5001131482967 358.96080127157717 780.4268294715578 358.572535744395 779.353545794819 358.1842702172128 778.0220413419629 357.64460701198345 776.690536889107 357.1049438067541 775.278597894594 356.93563421895044 773.866658900081 356.76632463114686 772.3301090803789 356.3650755158162 770.7935592606766 355.96382640048563 769.4206560082216 355.9169636363147 768.0477527557667 355.8701008721437 766.5576867725904 355.78360172023986 765.0676207894139 355.69710256833605 763.5909563842843 355.53843585976085 762.1142919791545 355.37976915118566 760.4300989700062 355.0855396631147 758.7459059608577 354.79131017504363 757.335762199077 354.4965043852702 755.9256184372962 354.20169859549674 754.5579746807427 353.93133298432554 753.1903309241894 353.6609673731543 751.8655251186832 353.417849679431 750.540719313177 353.1747319857077 749.2113299918002 352.9973966096861 747.8819406704234 352.8200612336646 746.5744668373463 352.5087348018026 745.2669930042692 352.1974083699406 744.1142157174742 352.1332740188203 742.9614384306791 352.0691396677 741.3606277333886 351.9544764934219 739.7598170360982 351.8398133191438 737.867896200165 351.6337086948797 735.9759753642317 351.4276040706156 734.8411726402837 351.26770578079527 733.7063699163359 351.107807490975 731.6114145611592 350.6044555119628 729.5164592059825 350.1011035329506 728.090452819283 349.6972354225788 726.6644464325833 349.29336731220695 725.4990612595403 349.0446481265376 724.3336760864973 348.7959289408683 723.1891371033383 348.38724828971067 722.0445981201793 347.9785676385531 720.016731028979 347.71894992659895 717.9888639377788 347.4593322146448 716.7477792264549 347.25822271511663 715.5066945151311 347.05711321558846 714.2809544407115 346.7876088236071 713.0552143662919 346.51810443162583 711.6439623170858 346.1652884724938 710.2327102678796 345.8124725133617 708.9753035193783 345.5479815328665 707.7178967708768 345.28349055237135 706.0627259961796 344.8873437135797 704.4075552214822 344.49119687478805 703.3900064793418 343.81262476767415 702.3724577372013 343.13405266056026 701.1251321925915 342.37620071699695 699.8778066479817 341.61834877343364 698.5475059477737 341.2691779050273 697.2172052475656 340.9200070366209 695.7488457107426 340.7137886030704 694.2804861739195 340.50757016951985 693.0663507775857 340.21401100702826 691.852215381252 339.9204518445367 690.2846178107964 339.24967265465614 688.7170202403408 338.5788934647756 687.3694795654719 338.0395693755555 686.0219388906031 337.5002452863355 684.6146729808379 337.2503367861236 683.2074070710727 337.00042828591177 681.3200204600287 336.8212995511698 679.4326338489847 336.6421708164278 678.1753535471503 336.50491985954676 676.9180732453159 336.36766890266574 675.6649067680905 336.1833242321102 674.411740290865 335.9989795615547 672.9757694148025 335.7582088894356 671.5397985387399 335.5174382173165 669.9867335149496 335.4050875824745 668.4336684911593 335.2927369476325 666.7716326493392 335.14073835988813 665.1095968075189 334.98873977214384 663.2953516164711 334.7823692442047 661.4811064254233 334.57599871626553 659.6832404120569 334.2959851036554 657.8853743986906 334.0159714910453 656.1418167184133 333.6433580545373 654.398259038136 333.27074461802925 652.8887117665738 332.9798739841612 651.3791644950117 332.68900335029315 649.8182079525275 332.30502142326856 648.2572514100432 331.92103949624396 646.521315356773 331.6063388495926 644.7853793035029 331.29163820294116 643.3769791224277 330.88155268345895 641.9685789413526 330.47146716397674 640.4998542079404 330.13374598082305 639.0311294745284 329.7960247976693 637.4277934563343 329.54751881551766 635.8244574381403 329.299012833366 634.3086941016804 328.95949792982424 632.7929307652207 328.6199830262825 631.4146927884102 328.1608439182974 630.0364548115997 327.7017048103123 628.6532851436023 327.099084085062 627.2701154756048 326.4964633598116 625.8503402717581 325.9049015600658 624.4305650679115 325.31333976032005 622.712218908801 324.72491929696935 620.9938727496905 324.1364988336187 619.0748863837714 323.5485907838464 617.1559000178524 322.96068273407406 615.0289414186889 322.17625550171743 612.9019828195253 321.3918282693608 610.4530506140313 320.5461179044571 608.0041184085372 319.7004075395534 605.3482651641489 318.77537229778 602.6924119197606 317.85033705600665 599.7700185203096 316.82245541484883 596.8476251208585 315.79457377369096 593.7421214923851 314.83249883543766 590.6366178639116 313.87042389718437 587.5376281425315 312.79033186863916 584.4386384211513 311.71023984009395 581.1343461744793 310.47267448666844 577.8300539278075 309.235109133243 574.4503209063008 307.99715907244627 571.0705878847941 306.75920901164955 568.8969592319402 305.95656182516296 566.7233305790862 305.1539146386764 565.1063854495253 304.50995632678183 563.4894403199643 303.8659980148873 563.4158869237929 303.82568743223453 563.3423335276216 303.7853768495817 563.280564849807 303.7286346641886 563.2187961719925 303.6718924787955 563.1724022109915 303.6020165491432 563.1260082499905 303.5321406194908 563.0976854249961 303.45319213789367 563.0693626000019 303.3742436562966 563.0607570349338 303.29081111221456 563.0521514698656 303.2073785681325 563.0637633205697 303.1243110649476 563.0753751712738 303.0412435617627 563.1065295564416 302.963368986663 563.1376839416095 302.88549441156334 563.1865701669112 302.81733883851257 563.2354563922131 302.74918326546174 563.2992331879375 302.6947078995678 563.3630099836619 302.6402325336739 563.4379706394448 302.6026034857621 563.5129312952275 302.5649744378503 563.5947190942328 302.54637870995333 563.6765068932381 302.52778298205635 563.7603683247448 302.52930135875323 563.8442297562515 302.5308197354501 563.9252907899202 302.55236396861585 564.006351823589 302.57390820178165 564.0063195213436 302.5738952789941 Z" fill="#f97316"/><path d="M 666.8605401667096 376.9750192390185 Q 666.8605401667096 376.9750192390185 667.6694106285227 377.13347102388894 668.4782810903356 377.2919228087594 670.4053520044824 377.9097999091324 672.3324229186294 378.52767700950534 674.5460131910037 379.30332481641176 676.759603463378 380.0789726233182 679.4960595550912 380.80422445650333 682.2325156468044 381.52947628968843 685.7380429813395 382.55875645742026 689.2435703158748 383.58803662515203 692.788453478621 384.5060457263112 696.3333366413673 385.4240548274704 700.4004766771493 386.2628278525734 704.4676167129312 387.10160087767645 708.136364974725 387.8868184305366 711.8051132365187 388.67203598339677 715.1648760204789 389.41438272439063 718.5246388044391 390.1567294653845 722.1165569427901 390.7012080699327 725.7084750811413 391.2456866744809 729.0337709536533 391.81398683849176 732.3590668261653 392.3822870025026 735.3069322310241 392.9649831843729 738.254797635883 393.5476793662432 741.2365514010871 394.13904113561716 744.2183051662913 394.7304029049911 746.9156667835753 395.3309074436743 749.6130284008591 395.9314119823575 751.9153115363586 396.372233599015 754.2175946718581 396.81305521567253 756.3985449978387 397.1382234295536 758.5794953238193 397.46339164343465 760.3597304109423 397.7049700823398 762.1399654980653 397.94654852124495 763.6514925206452 398.2927650056836 765.163019543225 398.63898149012226 766.6005103519815 399.05714633307 768.0380011607378 399.4753111760178 769.2374574214017 399.7753084934893 770.4369136820656 400.0753058109608 772.4677436823262 400.6326178245283 774.4985736825868 401.1899298380959 777.5225747402937 402.0793010518594 780.5465757980008 402.9686722656228 780.5481180112222 402.97342848033406 780.5496602244436 402.97818469504534 780.5512024376651 402.9829409097566 780.5527446508864 402.9876971244679 777.2968473240135 402.7462012983706 774.0409499971406 402.5047054722732 772.0717142870768 401.9520795474448 770.102478577013 401.3994536226163 768.8806437539723 401.08785116757315 767.6588089309316 400.77624871252993 766.2591141664498 400.3673685622191 764.859419401968 399.95848841190826 763.4084029916223 399.62336258267055 761.9573865812768 399.2882367534329 760.1685194633551 399.0455015190704 758.3796523454333 398.8027662847079 756.171272241732 398.4730140479228 753.9628921380307 398.1432618111377 751.6407838291234 397.6984573957923 749.318675520216 397.25365298044693 746.6367176786532 396.6565563940417 743.9547598370906 396.0594598076364 740.9733730993037 395.4683999097157 737.9919863615169 394.8773400117949 735.0613354149787 394.29813042625506 732.1306844684403 393.7189208407152 728.8178148306695 393.153058171575 725.5049451928986 392.58719550243484 721.8684710376688 392.0350270740471 718.2319968824388 391.48285864565935 714.8763709877535 390.74224793846395 711.5207450930683 390.00163723126855 707.8566963706733 389.2185557360351 704.1926476482781 388.4354742408017 700.0920910304415 387.59053300518974 695.9915344126049 386.7455917695778 692.4249238859583 385.8238146524543 688.8583133593116 384.90203753533086 685.3694881908514 383.8804915824966 681.880663022391 382.85894562966234 679.0922977041204 382.12207290050503 676.3039323858497 381.3852001713478 674.1058133353557 380.62070976317983 671.9076942848617 379.8562193550119 670.0541950005834 379.2655048252502 668.200695716305 378.6747902954886 667.3935885169851 378.51004177823506 666.5864813176654 378.3452932609815 666.5064877887903 378.31894105656494 666.4264942599152 378.29258885214836 666.3551320369925 378.24785814145594 666.2837698140698 378.2031274307636 666.2251864728489 378.1426179648025 666.1666031316279 378.0821084988415 666.1242035386529 378.00933709061644 666.0818039456778 377.93656568239135 666.0580523672846 377.8557618095674 666.0343007888914 377.77495793674353 666.0305776679322 377.69081792420593 666.0268545469729 377.6066779116683 666.0433762714127 377.52409198089896 666.0598979958526 377.4415060501296 666.0957043222907 377.3652740993051 666.1315106487289 377.2890421484806 666.1845205117904 377.2235947821646 666.2375303748521 377.1581474158486 666.3046628388053 377.10728843804645 666.3717953027584 377.05642946024426 666.449148625644 377.02311479713535 666.5265019485297 376.9898001340265 666.6095803515873 376.97596603539614 666.6926587546448 376.96213193676573 666.7766337171852 376.96858244107614 666.8606086797255 376.9750329453866 666.8605744232175 376.97502609220254 Z" fill="#f97316"/><path d="M 693.0522558014352 414.2393884998115 Q 693.0522558014352 414.2393884998115 694.1833612079556 414.72350552506293 695.314466614476 415.2076225503144 697.0789371351052 415.71606984417633 698.8434076557344 416.2245171380383 700.9521666058315 416.6032291958279 703.0609255559287 416.98194125361755 705.6341575504157 417.59500001162144 708.2073895449028 418.2080587696253 710.58726040568 418.82159385605917 712.9671312664573 419.43512894249295 715.2123521149254 420.05063749874864 717.4575729633935 420.6661460550044 719.5796661906736 421.11562878089416 721.7017594179538 421.5651115067839 723.7541673756332 421.89797788959737 725.8065753333126 422.2308442724108 727.3362321174143 422.4792172500754 728.8658889015161 422.72759022774 730.3441556961089 423.07754774848377 731.8224224907018 423.42750526922754 733.050239770632 423.6780806277692 734.2780570505621 423.9286559863108 736.2933204012382 424.24680065612387 738.3085837519144 424.56494532593695 739.9663837241519 424.73610849286945 741.6241836963895 424.9072716598019 742.9338327242206 424.99932628889985 744.2434817520517 425.0913809179978 745.3962852989083 425.14014211143444 746.5490888457649 425.188903304871 747.8088496753749 425.50355549996254 749.0686105049848 425.818207695054 750.3155623016291 426.33878707914477 751.5625140982736 426.8593664632355 753.5431477228049 428.0925292243078 755.5237813473361 429.32569198538 755.5206251770151 429.3295699473324 755.517469006694 429.3334479092848 755.5143128363729 429.3373258712372 755.5111566660519 429.34120383318964 752.7720686494417 428.5747769674884 750.0329806328315 427.80835010178714 748.7646643445397 427.39220670532364 747.4963480562479 426.97606330886015 746.399159988148 426.78555998887236 745.301971920048 426.59505666888464 744.1597869576417 426.5167745651099 743.0176019952354 426.43849246133516 741.4412429385503 426.2985283248021 739.8648838818652 426.15856418826894 738.0193782222236 425.90646876855806 736.1738725625821 425.65437334884723 735.0879851470281 425.4605534381949 734.002097731474 425.26673352754256 732.7557180910543 425.00700684903643 731.5093384506346 424.74728017053036 730.0788769584728 424.40717408471875 728.6484154663111 424.06706799890713 727.11878410685 423.8193338038057 725.5891527473889 423.5715996087043 723.5045922891618 423.2335976037341 721.4200318309347 422.8955955987639 719.258993943457 422.4378864547637 717.0979560559791 421.9801773107635 714.8623735807512 421.3689220132127 712.6267911055234 420.7576667156618 710.2585749248497 420.1493443961692 707.890358744176 419.5410220766766 705.3540437683232 418.93884749643644 702.8177287924703 418.3366729161963 700.6392978075953 417.9461508513974 698.4608668227202 417.5556287865985 696.6131503604697 417.02386766587153 694.7654338982193 416.4921065451446 693.634176939017 416.00663856368215 692.5029199798148 415.5211705822197 692.4302208818185 415.47899123537945 692.3575217838221 415.4368118885391 692.2970298167579 415.3784596986055 692.2365378496936 415.32010750867187 692.1917688095293 415.2489739076656 692.146999769365 415.1778403066592 692.1205556348186 415.0980595828129 692.0941115002722 415.01827885896654 692.087529205686 414.9344878716986 692.0809469110998 414.85069688443065 692.0946090197442 414.76776556985806 692.1082711283888 414.68483425528547 692.1413835978677 414.6075825853077 692.1744960673467 414.53033091532984 692.2251343993782 414.46324876063557 692.2757727314097 414.39616660594135 692.3409938237569 414.34315278451334 692.406214916104 414.2901389630853 692.4822281158151 414.2542746407158 692.5582413155263 414.21841031834623 692.6406287318628 414.20177993113634 692.7230161481993 414.1851495439265 692.8069894206527 414.1887196507623 692.8909626931061 414.19228975759813 692.9716412911359 414.2158528637026 693.0523198891659 414.239415969807 693.0522878453005 414.2394022348093 Z" fill="#f97316"/><path d="M 849.1021118164062 199.7312899108091 Q 849.1021118164062 199.7312899108091 848.1325268096923 199.7313341776202 847.1629418029785 199.7313784444313 845.0303207422338 199.7297104442118 842.8976996814891 199.7280424439923 841.7666543486343 199.72678612122854 840.6356090157796 199.7255297984648 838.4147921817962 199.72369258332165 836.193975347813 199.7218553681785 834.9665051027057 199.72013157826086 833.7390348575983 199.71840778834326 831.60751849397 199.87629433745445 829.4760021303418 200.03418088656562 827.45648403096 200.521045198026 825.4369659315782 201.0079095094864 824.3171200144097 201.1644591145291 823.1972740972411 201.32100871957184 821.8462010890355 201.78868668986553 820.4951280808298 202.2563646601592 819.2649240966689 202.94682396965874 818.034720112508 203.6372832791583 817.5540622701263 204.65529166653647 817.0734044277447 205.67330005391466 817.1974355385655 207.1787852993129 817.3214666493865 208.6842705447111 817.9005466293984 210.1599726522668 818.4796266094104 211.63567475982245 819.1110002590233 212.8034738333086 819.7423739086361 213.97127290679472 820.3685946352606 215.17241833139093 820.9948153618851 216.37356375598713 821.4643817047719 217.36681194621093 821.9339480476586 218.36006013643475 822.7466081201759 219.34777451995106 823.5592681926931 220.33548890346736 824.4478713901394 221.49702981600353 825.3364745875857 222.6585707285397 826.2576179959558 223.48932532258047 827.178761404326 224.32007991662124 828.1563816271819 224.88825654915857 829.1340018500379 225.4564331816959 830.6267893379336 225.83861899378397 832.1195768258293 226.22080480587204 833.6294265395848 226.34707869691368 835.1392762533401 226.4733525879553 836.9391106040766 226.54654148783902 838.7389449548131 226.61973038772274 840.6864871365278 226.66162130944957 842.6340293182426 226.70351223117643 844.2617223335999 226.72433217642663 845.8894153489573 226.74515212167682 847.1805131591575 226.75478446354091 848.4716109693577 226.764416805405 849.8353641148587 226.49979341952425 851.1991172603599 226.2351700336435 852.4669006313939 225.3278142883779 853.7346840024277 224.42045854311235 854.7454365801792 223.5552123543008 855.7561891579307 222.6899661654893 856.4646487658744 221.4597145204208 857.173108373818 220.2294628753523 857.4919037570546 218.9086316165602 857.8106991402913 217.5878003577681 857.9425505254251 216.0488201998719 858.074401910559 214.5098400419757 858.117604717809 213.2087790781494 858.1608075250589 211.90771811432307 857.9084611276712 210.39977909414682 857.6561147302834 208.89184007397054 857.514695976178 207.33690128332995 857.3732772220725 205.7819624926894 857.0332011530672 204.66562893560462 856.6931250840619 203.54929537851982 855.4191993414148 202.91319224091995 854.1452735987677 202.2770891033201 852.797773070881 201.8499012106265 851.4502725429943 201.42271331793296 849.3995521394656 199.9847483499471 847.348831735937 198.5467833819612 847.3506594064281 198.5421293922131 847.3524870769194 198.53747540246496 847.3543147474106 198.53282141271683 847.3561424179018 198.52816742296872 849.5589221965699 199.22458749995002 851.7617019752381 199.9210075769313 852.9589059020703 200.2635673751844 854.1561098289026 200.60612717343753 855.2904442966919 201.16609304532557 856.4247787644812 201.72605891721358 857.3801174601267 202.60054802675336 858.3354561557721 203.4750371362931 858.608267098966 204.5679286666679 858.8810780421599 205.6608201970427 859.0216997769908 207.1792587933819 859.1623215118216 208.69769738972113 859.4257202045849 210.31666436611437 859.6891188973483 211.93563134250758 859.6473859158551 213.26836176659077 859.605652934362 214.60109219067394 859.5254700828334 215.70883433586994 859.445287231305 216.8165764810659 859.1799222067084 218.22595949757346 858.9145571821117 219.635342514081 858.5253978632065 220.77242385229317 858.1362385443014 221.9095051905053 857.3833918946195 222.918622918425 856.6305452449376 223.92774064634472 855.7299466226124 224.69752110086256 854.8293480002872 225.46730155538043 853.7831792228471 226.30748874433965 852.7370104454071 227.14767593329884 851.1754707261841 227.70616642496054 849.6139310069613 228.26465691662224 848.4869270022162 228.25545242394483 847.3599229974712 228.24624793126742 845.8293322216418 228.23006052903847 844.2987414458125 228.21387312680952 842.5288882451221 228.1869236480049 840.7590350444315 228.15997416920027 838.7642983838114 228.11310474844194 836.7695617231913 228.06623532768361 834.9496522518168 227.97400529801524 833.1297427804425 227.8817752683469 831.871343097803 227.70303327205357 830.6129434151636 227.52429127576022 829.5452457580578 227.1801085251435 828.477548100952 226.8359257745268 827.4668768231272 226.24996856532613 826.4562055453023 225.66401135612546 825.5300564627058 224.99546204276686 824.6039073801094 224.32691272940826 824.0029421094016 223.38113951137123 823.4019768386939 222.4353662933342 822.4438805349896 221.34093431652525 821.4857842312852 220.24650233971633 820.7301436455225 219.19036657723103 819.9745030597597 218.13423081474573 819.5468983857011 217.00099479478928 819.1192937116423 215.86775877483285 818.4969816138796 214.69278072920952 817.874669516117 213.51780268358615 817.200129066016 212.28549276361258 816.5255886159148 211.05318284363904 816.1274645305884 209.50527087293653 815.729340445262 207.957358902234 815.6939534980636 206.57668359178228 815.6585665508653 205.1960082813306 816.3001398816089 203.92296241636222 816.9417132123524 202.6499165513939 817.9032294735274 201.9086089731694 818.8647457347024 201.16730139494496 820.0508482609147 200.8240483216511 821.236950787127 200.48079524835723 823.1980584830696 200.04116501715987 825.1591661790123 199.60153478596249 827.2141012177991 199.11045909233758 829.2690362565859 198.6193833987127 831.504035557092 198.4540736206144 833.7390348575983 198.28876384251612 834.9665051027057 198.2870400525985 836.193975347813 198.28531626268088 838.4147921817962 198.28347904753772 840.6356090157796 198.28164183239457 841.7666543486343 198.28038550963083 842.8976996814891 198.27912918686707 845.0303207422338 198.27746118664757 847.1629418029785 198.27579318642807 848.1325268096923 198.27583745323918 849.1021118164062 198.27588172005028 849.189190028431 198.2864552691039 849.2762682404557 198.29702881815751 849.3582854627061 198.32813493015058 849.4403026849567 198.35924104214365 849.5124920726223 198.4090718283856 849.5846814602878 198.4589026146276 849.6428473627655 198.52456190748077 849.701013265243 198.59022120033396 849.7417750775478 198.66789287861275 849.7825368898525 198.74556455689157 849.803525533538 198.830734339005 849.8245141772237 198.91590412111847 849.824509791333 199.00362193532845 849.8245054054423 199.09133974953846 849.8035082448835 199.1765074323617 849.7825110843246 199.26167511518494 849.7417415050559 199.33934271689415 849.700971925787 199.41701031860336 849.642799457671 199.482663794538 849.584626989555 199.54831727047267 849.5124326191717 199.59814083752673 849.4402382487885 199.6479644045808 849.358217916337 199.67906231469613 849.2761975838854 199.71016022481143 849.1891183149412 199.72072506599102 849.1020390459969 199.73128990717058 849.1020754312016 199.73128990898982 Z" fill="#f97316"/><path d="M 931.1109031139363 211.55780902537933 Q 931.1109031139363 211.55780902537933 928.5390956330054 217.232329993804 925.9672881520745 222.9068509622287 920.8905527162449 232.52114536757426 915.8138172804154 242.13543977291985 909.3622547058221 253.69605562504842 902.9106921312289 265.25667147717695 897.3498392038589 277.2078631455363 891.788986276489 289.1590548138956 884.7668818078387 304.603764308226 877.7447773391884 320.04847380255643 872.6165777894254 331.5976542696219 867.4883782396623 343.14683473668737 863.5405520083588 353.35589093214855 859.5927257770552 363.5649471276098 855.4133179125035 375.037808248145 851.2339100479518 386.5106693686801 848.0197616548129 394.9760763902045 844.805613261674 403.4414834117289 842.3627688496586 409.5480176278212 839.9199244376432 415.65455184391357 837.0961596010206 422.5314222786179 834.2723947643981 429.4082927133223 832.3712900341573 434.4370775265069 830.4701853039165 439.46586233969157 828.5644663848668 443.8096192560669 826.658747465817 448.1533761724423 825.6201882965663 451.67801850572266 824.5816291273155 455.2026608390031 823.0301010548151 458.6954690662756 821.4785729823145 462.18827729354814 820.5974447792389 464.656185574569 819.7163165761632 467.12409385558993 818.2169173996976 470.68725884150626 816.717518223232 474.25042382742265 816.2376248272312 476.96023701451935 815.7577314312306 479.67005020161605 814.356705548995 483.29248541996003 812.9556796667595 486.91492063830407 812.1199638983857 489.4256421266741 811.2842481300119 491.93636361504423 809.7557885880888 494.7013423448998 808.2273290461657 497.4663210747554 807.4083878092406 500.3249381827804 806.5894465723154 503.1835552908054 805.4374846110358 506.1373529913944 804.2855226497561 509.0911506919834 802.9625570908481 511.0128946620998 801.6395915319401 512.9346386322162 800.7294316530127 515.9083908891446 799.8192717740853 518.882143146073 798.5616598647348 521.0957121802112 797.3040479553842 523.3092812143495 795.4274586225645 526.2869815966667 793.5508692897447 529.2646819789838 791.9390193014933 532.1240695335689 790.3271693132419 534.983457088154 786.7251564921594 536.418951706061 783.1231436710768 537.854446323968 782.338606323226 537.7506346489936 781.5540689753753 537.6468229740191 780.8437505055949 537.2979341872655 780.1334320358145 536.9490454005119 779.5717029753962 536.3916082500498 779.009973914978 535.8341710995877 778.6556474448298 535.1265494022198 778.3013209746815 534.4189277048517 778.191495169761 533.6352096390863 778.0816693648404 532.8514915733207 778.2278430159139 532.0737326275248 778.3740166669874 531.295973681729 778.7608853542014 530.605605422836 779.1477540414154 529.915237163943 779.7348125110952 529.3845413308984 780.3218709807751 528.853845497854 781.047654056177 528.5383860844678 781.7734371315787 528.2229266710816 782.5619551331197 528.1557323612085 783.3504731346608 528.0885380513355 784.1191680194313 528.2766441069567 784.8878629042017 528.464750162578 785.5562521148504 528.8884618300149 786.224641325499 529.3121734974518 786.7227443352333 529.9271280532746 787.2208473449675 530.5420826090975 787.4965126371818 531.2838941489795 787.7721779293961 532.0257056888614 787.7965432752271 532.8167063487576 787.820908621058 533.6077070086538 787.5914229623652 534.3650788106693 787.3619373036724 535.1224506126846 786.9026278494995 535.7668965292214 786.4433183953265 536.4113424457581 785.8022749667712 536.8753888192377 785.1612315382158 537.3394351927175 784.4055715514668 537.5744962453402 783.6499115647177 537.8095572979631 782.8587528198626 537.7910220754694 782.0675940750075 537.7724868529757 781.3237711014781 537.5022959980533 780.5799481279488 537.232105143131 779.961339387424 536.7385477096138 779.3427306468993 536.2449902760968 778.9141046378088 535.5797418575606 778.4854786287184 534.9144934390245 778.2917126073603 534.1472057204985 778.0979465860023 533.3799180019727 778.1593279059621 532.5909262101309 778.2207092259218 531.8019344182892 778.5308112467965 531.073846202011 778.8409132676712 530.3457579857329 779.3672682260162 529.7548043734594 779.8936231843613 529.1638507611858 780.5811215770939 528.7719047521184 781.2686199698264 528.379958743051 782.0452805337454 528.228057187803 782.8219410976643 528.0761556325548 782.821207725857 528.076178222748 782.8204743540496 528.0762008129411 783.6345339434149 527.259687276216 784.4485935327801 526.4431737394908 786.1953757781042 524.5792645722195 787.9421580234283 522.715355404948 789.5365274182695 520.4200014974526 791.1308968131108 518.1246475899572 792.6492109079375 516.1051236394928 794.167525002764 514.0855996890284 796.0858560376163 510.2784469153621 798.0041870724685 506.47129414169575 799.1110606574273 503.8516453872874 800.217934242386 501.2319966328791 801.3568157865916 497.69083214355277 802.4956973307973 494.14966765422645 803.8952548566083 491.92767247969846 805.2948123824193 489.7056773051704 806.3129219583923 487.19655260939794 807.3310315343653 484.6874279136255 808.6134054455835 481.5341282139734 809.8957793568017 478.38082851432137 810.6940586710416 475.21903045997044 811.4923379852814 472.0572324056195 813.0004040093818 468.51909287926026 814.5084700334822 464.98095335290094 815.6681039578873 462.48978777001946 816.8277378822922 459.99862218713804 818.3994608576784 456.8586891910972 819.9711838330644 453.71875619505636 821.2457415021315 450.0297008458392 822.5202991711985 446.34064549662213 824.3786659137695 442.10378964443726 826.2370326563406 437.8669337922524 828.1569734913567 432.7773359508972 830.0769143263726 427.68773810954207 832.8866779739478 420.82798509353705 835.696441621523 413.96823207753204 838.1162473825741 407.8959708236647 840.536053143625 401.8237095697974 843.7277254127565 393.38300517992775 846.919397681888 384.94230079005814 851.0983402497002 373.42162203463397 855.2772828175125 361.90094327920986 859.2462855562015 351.5786443035262 863.2152882948906 341.25634532784244 868.3221280724997 329.67475285659816 873.4289678501088 318.0931603853539 880.4179731211852 302.6122776489186 887.4069783922617 287.13139491248336 892.9922288334126 274.9945824148177 898.5774792745633 262.85776991715215 904.9236221500281 251.3118205038636 911.2697650254929 239.76587109057502 916.1626062345608 230.2614310694222 921.0554474436286 220.75699104826936 923.4773380828149 215.01734613839812 925.8992287220012 209.27770122852692 926.0735122024837 208.98244766406594 926.2477956829663 208.68719409960494 926.4876754895066 208.44223067925373 926.727555296047 208.1972672589025 927.0190896030183 208.0168312681614 927.3106239099898 207.83639527742034 927.6368687297734 207.73097366454903 927.963113549557 207.6255520516777 928.3051075178984 207.60127192576942 928.6471014862398 207.57699179986116 928.9849678976304 207.63526432297454 929.3228343090211 207.6935368460879 929.6369363517565 207.83097521644163 929.9510383944919 207.96841358679538 930.2231204430901 208.177029879847 930.4952024916884 208.38564617289865 930.7094511247012 208.6533155998942 930.9236997577141 208.92098502688978 931.0676628345244 209.23215062815592 931.2116259113347 209.54331622942203 931.2769362911542 209.8798930455931 931.3422466709739 210.21646986176415 931.3251085114589 210.55889603247027 931.3079703519439 210.9013222031764 931.2093797237308 211.2296959032873 931.1107890955175 211.55806960339822 931.1108461047269 211.55793931438876 Z" fill="#f97316"/><path d="M 471.64418471926234 450.90704429216953 Q 471.64418471926234 450.90704429216953 483.7443757217195 455.26436556604796 495.8445667241767 459.6216868399264 509.81714866886193 463.6117521577993 523.7897306135471 467.6018174756722 542.5756180601754 472.52964526272723 561.3615055068037 477.45747304978227 577.9077137923841 481.7058122015903 594.4539220779646 485.9541513533983 609.3436143007522 489.91217358816357 624.2333065235397 493.87019582292885 641.2576758681091 498.41172600146115 658.2820452126784 502.95325617999345 671.215271474448 506.31283076509425 684.1484977362175 509.67240535019505 696.4269049853744 512.8885869173807 708.7053122345314 516.1047684845665 717.0720084773434 517.8165729308281 725.4387047201554 519.5283773770897 732.5846576076938 520.9766485591889 739.7306104952322 522.4249197412881 744.8931945744574 523.3957049241759 750.0557786536826 524.3664901070637 754.151011187608 525.4739140941972 758.2462437215332 526.5813380813307 761.8075017817825 527.715048986679 765.3687598420317 528.8487598920271 768.4337228790002 529.2101829644702 771.4986859159688 529.5716060369132 773.7782327265884 530.0551295404427 776.0577795372079 530.5386530439722 779.3428031618669 531.633637961653 782.6278267865257 532.7286228793337 785.3097630997361 532.9690519292835 787.9916994129464 533.2094809792335 789.8452916702113 533.5426620944844 791.6988839274762 533.8758432097353 792.1642329545602 534.021895081745 792.6295819816444 534.1679469537546 793.04645436347 534.4211233420624 793.4633267452958 534.6742997303703 793.8074938394448 535.0198860113924 794.1516609335937 535.3654722924146 794.4031197323833 535.7833829752607 794.6545785311729 536.2012936581068 794.7987142374027 536.6672397542545 794.9428499436326 537.1331858504021 794.9712853832846 537.6200865508508 794.9997208229364 538.1069872512995 794.9108033269217 538.5865438644623 794.821885830907 539.066100477625 794.6207832882719 539.5104411506129 794.4196807456368 539.9547818236007 794.118081245608 540.3380814556224 793.816481745579 540.7213810876441 793.4319142652687 541.0213622860773 793.0473467849584 541.3213434845105 792.602162404391 541.5205713280077 792.1569780238237 541.7197991715047 791.6770508801148 541.8066945284411 791.1971237364061 541.8935898853775 790.7103472176973 541.8631023935253 790.2235706989886 541.8326149016731 788.2821568050056 540.7131301015504 786.3407429110224 539.5936453014277 785.7735416392175 539.251113569751 785.2063403674126 538.9085818380744 784.7782064210329 538.4028678933389 784.3500724746532 537.8971539486035 784.1058315909011 537.2812061743186 783.8615907071489 536.6652584000338 783.8268149710266 536.0035666907615 783.7920392349041 535.3418749814892 783.9703696751633 534.70371863386 784.1487001154226 534.0655622862308 784.5214654878937 533.5177564382984 784.8942308603647 532.9699505903659 785.4224025321494 532.5698506590154 785.9505742039341 532.1697507276649 786.5788524615729 531.9592472813249 787.2071307192116 531.7487438349849 787.86973466328 531.7498766400547 788.5323386073486 531.7510094451246 789.1598934299925 531.9636598966144 789.7874482526365 532.1763103481042 790.3142487982667 532.5782138876086 790.8410493438969 532.9801174271132 791.211939456324 533.529194647954 791.5828295687511 534.0782718687949 791.7589769552985 534.7170342410078 791.935124341846 535.3557966132207 791.8980863246437 536.017365547818 791.8610483074415 536.6789344824153 791.6147027766679 537.2940435373075 791.3683572458941 537.9091525921997 790.93849664365 538.4133996869665 790.5086360414058 538.9176467817333 789.9402668862182 539.2582371124444 789.3718977310306 539.5988274431554 788.7245284234826 539.7401011122781 788.0771591159347 539.881374781401 787.4185693934155 539.8085403984855 786.7599796708963 539.7357060155701 786.1591240512046 539.4563893597343 785.5582684315128 539.1770727038985 785.0780566566406 538.7205183027406 784.5978448817683 538.2639639015828 784.2885552513085 537.6779731214228 783.9792656208485 537.0919823412629 783.8732808407547 536.4379085714701 783.7672960606607 535.7838348016772 783.8757127653857 535.1301597386076 783.9841294701109 534.476484675538 784.2955964020512 533.8916482708485 784.6070633339914 533.3068118661589 785.0889698231533 532.8520466458021 785.5708763123154 532.3972814254454 786.1727666220728 532.1202014280392 786.7746569318302 531.843121430633 787.433512987868 531.7727370050479 788.0923690439056 531.7023525794627 788.7392084432354 531.846032993637 789.3860478425651 531.9897134078112 789.3854775476688 531.9894850099397 789.3849072527725 531.9892566120681 790.5416966671446 532.9325130479631 791.6984860815168 533.875769483858 792.1638497114612 534.0217748202348 792.6292133414057 534.1677801566116 793.0461110387859 534.4209148564155 793.463008736166 534.6740495562193 793.8072103872221 535.0196014188041 794.1514120382783 535.365153281389 794.4029126268788 535.7830388162657 794.6544132154793 536.2009243511425 794.798595515598 536.6668560313898 794.9427778157168 537.1327877116371 794.9712619452964 537.6196855661074 794.9997460748762 538.1065834205775 794.9108765349673 538.5861489230921 794.8220069950585 539.0657144256066 794.6209488874961 539.5100752066271 794.4198907799337 539.9544359876475 794.1183296113759 540.3377657777025 793.8167684428182 540.7210955677577 793.4322309625505 541.021115221439 793.0476934822829 541.3211348751202 792.6025290267257 541.5204072360591 792.1573645711686 541.7196795969982 791.6774461193952 541.8066229462144 791.1975276676217 541.8935662954306 790.7107481025976 541.8631274813825 790.2239685375736 541.8326886673345 789.5093415230051 541.7195752441507 788.7947145084365 541.606461820967 785.5301679533588 540.6602729434507 782.265621398281 539.7140840659343 779.8237123279582 538.6356731425087 777.3818032576355 537.557262219083 774.0233373195435 536.236150268503 770.6648713814517 534.9150383179231 767.2076456680998 534.2633732367902 763.7504199547479 533.6117081556574 760.3580625098775 532.3616822290626 756.9657050650072 531.1116563024676 753.0922828947907 529.9673721303415 749.2188607245741 528.8230879582153 744.0244625725467 527.8528206822751 738.8300644205192 526.882553406335 731.6779830886117 525.4422671025891 724.5259017567042 524.0019807988432 716.0356690514175 522.2742637825464 707.5454363461308 520.5465467662497 695.2675262576201 517.3482788500721 682.9896161691095 514.1500109338946 670.0357390501995 510.80955674839794 657.0818619312895 507.4691025629013 640.0523226147473 502.96006922502323 623.0227832982049 498.45103588714517 608.1422277177332 494.542034676818 593.2616721372616 490.6330334664908 576.6884970921035 486.4420649545243 560.1153220469453 482.2510964425578 541.2585090841612 477.3930654630571 522.4016961213772 472.5350344835564 508.2312326978679 468.60651207865095 494.0607692743585 464.6779896737455 481.9058325607512 460.47467557164737 469.7508958471439 456.2713614695492 469.44369930350985 456.1191127175829 469.1365027598758 455.96686396561654 468.87467000334215 455.7455203266702 468.6128372468085 455.52417668772387 468.41158600948717 455.24660266449285 468.2103347721658 454.96902864126184 468.08136178542566 454.65135684901816 467.9523887986855 454.3336850567744 467.9031899785756 453.9943785950089 467.8539911584657 453.6550721332435 467.8874259427225 453.3138515094563 467.92086072697924 452.9726308856691 468.0349858843707 452.64932785854694 468.14911104176224 452.3260248314247 468.3372936127787 452.03942978809414 468.5254761837952 451.7528347447636 468.77677898856746 451.5196046026087 469.02808179333977 451.28637446045377 469.327899101047 451.1200645662948 469.62771640875434 450.95375467213586 469.95862282338584 450.86403096483537 470.28952923801734 450.77430725753493 470.63229246320714 450.7663844831769 470.9750556883969 450.75846170881897 471.30975430939225 450.8328003394214 471.64445293038756 450.90713897002377 471.64431882482495 450.90709163109665 Z" fill="#f97316"/><path d="M 617.0896086305588 129.51896041545808 Q 617.0896086305588 129.51896041545808 619.1646338927053 126.66100788054857 621.2396591548517 123.80305534563905 623.74417476794 122.22891207874693 626.2486903810283 120.65476881185482 629.0805141539066 118.46037941805959 631.912337926785 116.26599002426435 634.0266737640729 115.4842372853208 636.141009601361 114.70248454637724 638.3657371316924 114.6290761944847 640.5904646620239 114.55566784259214 642.090379503929 113.99611053890301 643.5902943458341 113.43655323521388 645.2156904991128 113.42399783203678 646.8410866523916 113.41144242885969 647.4718277158813 113.45987759481022 648.1025687793712 113.50831276076076 649.9636909840151 114.68847980567358 651.8248131886589 115.8686468505864 651.8248131886592 115.8736468505864 651.8248131886594 115.8786468505864 651.8248131886596 115.88364685058642 651.8248131886598 115.88864685058641 649.9638593553316 117.06881465748123 648.1029055220034 118.24898246437604 647.4823496983358 118.29750651333994 646.8617938746681 118.34603056230384 645.995320634656 118.3439319842272 645.1288473946438 118.34183340615054 642.9067153351364 119.0124908201624 640.6845832756288 119.68314823417425 639.1871469104547 119.62046409897073 637.6897105452804 119.55777996376719 636.0609989046525 120.0376997764713 634.4322872640245 120.51761958917542 631.0712910821688 122.03487605285632 627.7102949003132 123.55213251653721 625.252522065846 124.48006070306383 622.7947492313789 125.40798888959043 619.94924998791 127.4705457312068 617.1037507444412 129.53310257282317 617.0966796875 129.52603149414062 Z" fill="#f97316"/><path d="M 604.6917912909481 129.53587019412166 Q 604.6917912909481 129.53587019412166 598.1420689904613 131.97114523086557 591.5923466899745 134.4064202676095 590.1057425110012 134.43264525851427 588.6191383320279 134.45887024941905 586.4630190087596 135.15784549545248 584.3068996854912 135.8568207414859 583.3247296848978 136.33386220338826 582.3425596843043 136.81090366529065 579.874154619152 136.27514451736764 577.4057495539997 135.73938536944462 577.4057495509031 135.73438536944462 577.4057495478065 135.72938536944463 577.4057495447099 135.72438536944463 577.4057495416133 135.71938536944464 578.6702948620706 133.93231394393686 579.9348401825279 132.1452425184291 581.4549126965918 131.38169535705123 582.9749852106557 130.61814819567334 585.7612800083905 130.08682969153764 588.5475748061251 129.55551118740195 589.6362194963076 129.56082407775511 590.7248641864902 129.56613696810828 597.7065388891773 129.54116488113394 604.6882135918644 129.5161927941596 604.6900024414062 129.52603149414062 Z" fill="#f97316"/><path d="M 610.883310546875 123.32266998291016 Q 610.883310546875 123.32266998291016 609.6150487321279 117.1674250288972 608.3467869173807 111.01218007488424 608.695477233072 107.58642853616922 609.0441675487633 104.16067699745422 609.2473393944247 100.42429414745729 609.450511240086 96.68791129746037 609.5990730035717 94.1328073482436 609.7476347670573 91.57770339902682 610.7991165543793 90.10396140700699 611.8505983417014 88.63021941498717 613.8483082007881 86.751366098636 615.8460180598748 84.87251278228483 615.8510180598748 84.87251278535544 615.8560180598748 84.87251278842604 615.8610180598748 84.87251279149663 615.8660180598748 84.87251279456724 616.612519912222 89.19728686011908 617.3590217645691 93.52206092567091 617.1802979232137 93.32080386148877 617.0015740818584 93.11954679730663 617.1395909791137 95.54813296321336 617.277607876369 97.97671912912011 616.2402072243497 101.67425429586683 615.2028065723304 105.37178946261353 614.3213203743499 108.20122392909414 613.4398341763693 111.03065839557473 612.1715723616221 117.17666418924244 610.903310546875 123.32266998291016 610.893310546875 123.32266998291016 Z" fill="#f97316"/><path d="M 603.4422697611972 119.60773330795374 Q 603.4422697611972 119.60773330795374 599.7215303409796 117.2126274623173 596.000790920762 114.81752161668086 591.607375468142 113.89536944674909 587.2139600155219 112.97321727681731 585.0472287683164 111.62669291473897 582.8804975211108 110.28016855266063 581.4423469989149 109.83074025740555 580.0041964767191 109.38131196215049 577.0972479043783 108.97796115656622 574.1902993320375 108.57461035098196 572.1492944021654 107.80482513830395 570.1082894722934 107.03503992562597 567.571609577752 107.18732171400818 565.0349296832107 107.33960350239039 562.5516573507373 107.24708715197443 560.0683850182638 107.15457080155848 558.8171661238009 107.00818272274428 557.5659472293379 106.86179464393008 555.7101381083379 106.74331932147552 553.8543289873379 106.62484399902095 551.3571108231371 105.05339154296752 548.8598926589362 103.48193908691407 548.8598926589362 103.47693908691406 548.8598926589362 103.47193908691406 548.8598926589362 103.46693908691407 548.8598926589362 103.46193908691406 551.3571108286385 101.89048663091614 553.8543289983407 100.31903417491822 555.7101391459342 100.20055885894001 557.5659492935278 100.08208354296183 558.8172335343747 99.93569622607411 560.0685177752216 99.7893089091864 562.5583208169736 99.69688219717935 565.0481238587256 99.60445548517231 568.6938990948054 99.76728296872065 572.339674330885 99.93011045226899 574.041566776468 100.40099525913598 575.7434592220509 100.87188006600299 579.0187910628449 101.70928898816716 582.2941229036388 102.54669791033133 584.5783147585071 103.34858324911306 586.8625066133752 104.15046858789478 588.459820674476 105.296003947344 590.0571347355767 106.44153930679323 594.3268722247901 109.26204570266117 598.5966097140035 112.0825520985291 601.0265107967157 115.838071626733 603.4564118794278 119.59359115493689 603.4493408203125 119.60066223144531 Z" fill="#f97316"/></svg>